<svg version="1.1" viewBox="0.0 0.0 960.0 540.0" fill="none" stroke="none" stroke-linecap="square" stroke-miterlimit="10" xmlns:xlink="http://www.w3.org/1999/xlink" xmlns="http://www.w3.org/2000/svg"><clipPath id="p.0"><path d="m0 0l960.0 0l0 540.0l-960.0 0l0 -540.0z" clip-rule="nonzero"/></clipPath><g clip-path="url(#p.0)"><path fill="#ffffff" d="m0 0l960.0 0l0 540.0l-960.0 0z" fill-rule="evenodd"/><path fill="#000000" fill-opacity="0.0" d="m304.57687 199.15294l46.582672 -9.606293l16.53543 80.47243l-46.582672 9.606323z" fill-rule="evenodd"/><path fill="#000000" d="m327.9514 250.57164l-6.91568 -33.65622l23.061615 -4.755768l1.1699219 5.6935425l-16.26709 3.3546143l1.6353455 7.9587097l14.048157 -2.8970032l1.1698914 5.6935425l-14.048126 2.8970184l2.9404907 14.310394l-6.794525 1.4011688z" fill-rule="nonzero"/><path fill="#000000" fill-opacity="0.0" d="m330.20868 201.54062l47.55905 -0.03149414l0 82.14172l-47.55905 0.03149414z" fill-rule="evenodd"/><path fill="#000000" d="m341.30243 239.64453q0 -5.25 1.5625 -8.813538q1.171875 -2.6257782 3.203125 -4.705246q2.03125 -2.0950928 4.4375 -3.1123047q3.21875 -1.3615112 7.40625 -1.3642883q7.5937195 -0.0050354004 12.1562195 4.7107086q4.5625 4.7001038 4.5625 13.090729q0 8.328125 -4.53125 13.034256q-4.515625 4.7061005 -12.0937195 4.711136q-7.65625 0.005065918 -12.1875 -4.6638184q-4.515625 -4.6845093 -4.515625 -12.887634zm7.140625 -0.23910522q0 5.828125 2.6875 8.84198q2.703125 3.0138245 6.859375 3.011078q4.140625 -0.002746582 6.796875 -2.9888763q2.6718445 -3.00177 2.6718445 -8.97052q0 -5.90625 -2.5937195 -8.810791q-2.59375 -2.9045258 -6.875 -2.9016876q-4.296875 0.0028381348 -6.921875 2.9420776q-2.625 2.9392395 -2.625 8.8767395z" fill-rule="nonzero"/><path fill="#000000" fill-opacity="0.0" d="m373.1385 196.8573l46.015747 12.031494l-20.881897 79.433075l-46.015747 -12.031494z" fill-rule="evenodd"/><path fill="#000000" d="m371.24307 253.29333l8.735809 -33.23033l14.134216 3.6956024q5.321106 1.3912964 7.505432 2.9152832q2.1842957 1.5239716 3.0316772 4.2003784q0.8513489 2.6612854 0.076690674 5.6080475q-0.9852295 3.7476654 -3.8318787 5.6035614q-2.8315125 1.8598328 -7.382263 1.3482971q1.8431396 1.8385315 2.8628845 3.7363434q1.0237122 1.8826904 2.406311 6.394806l2.3470764 7.5421295l-8.027039 -2.0987854l-2.9496155 -8.507187q-1.5679932 -4.544449 -2.254181 -5.8059235q-0.68618774 -1.2614899 -1.664154 -1.9047852q-0.9588623 -0.6544647 -3.2717285 -1.259201l-1.3605042 -0.35572815l-3.646881 13.872406l-6.711853 -1.7549133zm11.753113 -17.421661l4.9734497 1.3003845q4.8222656 1.260849 6.123749 1.1650848q1.3166199 -0.091812134 2.2590637 -0.91130066q0.94244385 -0.8195038 1.3357239 -2.3155518q0.440979 -1.6773834 -0.18078613 -2.9381714q-0.61776733 -1.2758942 -2.178894 -1.9747772q-0.78848267 -0.31921387 -4.8700256 -1.386383l-5.2455444 -1.3715363l-2.2167358 8.432251z" fill-rule="nonzero"/><path fill="#000000" fill-opacity="0.0" d="m388.5277 193.55861l139.87402 -0.06298828l0 82.14174l-139.87402 0.06298828z" fill-rule="evenodd"/><path fill="#000000" d="m400.93396 253.75302l0 -34.359375l10.375 -0.0046691895l6.234375 23.434692l6.171875 -23.440277l10.40625 -0.0046844482l0 34.359375l-6.453125 0.00289917l0 -27.046875l-6.8125 27.049942l-6.6875 0.0030212402l-6.796875 -27.043823l0 27.046875l-6.4375 0.00289917z" fill-rule="nonzero"/><path fill="#000000" d="m451.1371 253.73042l-13.65625 -38.16574l8.359375 -0.003753662l9.671875 28.245636l9.34375 -28.254211l8.171875 -0.0036773682l-13.671875 38.17804l-8.21875 0.0037078857z" fill-rule="nonzero"/><path fill="#000000" d="m476.36276 253.71906l0 -34.359375l6.9375 -0.0031280518l0 34.359375l-6.9375 0.0031280518z" fill-rule="nonzero"/><path fill="#000000" fill-opacity="0.0" d="m475.52887 193.54062l47.559082 -0.03149414l0 82.14172l-47.559082 0.03149414z" fill-rule="evenodd"/><path fill="#000000" d="m488.02887 248.61235l0 -34.359375l25.46875 -0.016860962l0 5.8125l-18.53125 0.012268066l0 7.609375l17.25 -0.011428833l0 5.796875l-17.25 0.011428833l0 9.34375l19.1875 -0.012710571l0 5.7968903l-26.125 0.017288208z" fill-rule="nonzero"/><path fill="#000000" fill-opacity="0.0" d="m513.12915 195.87137l44.69287 16.251968l-28.094482 77.19685l-44.6929 -16.251953z" fill-rule="evenodd"/><path fill="#000000" d="m510.62128 253.56805l4.041321 -35.091003l6.666626 2.42424l-3.1936035 23.943924l13.971863 -20.024567l7.753296 2.8193817l-2.5543213 24.608688l13.171082 -20.748062l6.563843 2.3868713l-19.591919 29.436203l-6.916321 -2.5150146l2.3531494 -26.477432l-15.201904 21.805191l-7.0631104 -2.5684204z" fill-rule="nonzero"/><path fill="#000000" fill-opacity="0.0" d="m352.25723 267.3176l179.77951 0l0 41.07086l-179.77951 0z" fill-rule="evenodd"/><path fill="#000000" d="m363.6166 291.67758l-1.3125 0l0 -11.453125l1.40625 0l0 4.078125q0.890625 -1.109375 2.28125 -1.109375q0.765625 0 1.4375 0.3125q0.6875 0.296875 1.125 0.859375q0.453125 0.5625 0.703125 1.359375q0.25 0.78125 0.25 1.671875q0 2.140625 -1.0625 3.3125q-1.046875 1.15625 -2.53125 1.15625q-1.46875 0 -2.296875 -1.234375l0 1.046875zm-0.015625 -4.21875q0 1.5 0.40625 2.15625q0.65625 1.09375 1.796875 1.09375q0.921875 0 1.59375 -0.796875q0.671875 -0.8125 0.671875 -2.390625q0 -1.625 -0.65625 -2.390625q-0.640625 -0.78125 -1.546875 -0.78125q-0.921875 0 -1.59375 0.796875q-0.671875 0.796875 -0.671875 2.3125zm7.5546875 7.421875l-0.15625 -1.328125q0.453125 0.125 0.796875 0.125q0.46875 0 0.75 -0.15625q0.28125 -0.15625 0.46875 -0.4375q0.125 -0.203125 0.421875 -1.046875q0.046875 -0.109375 0.125 -0.34375l-3.140625 -8.3125l1.515625 0l1.71875 4.796875q0.34375 0.921875 0.609375 1.921875q0.234375 -0.96875 0.578125 -1.890625l1.765625 -4.828125l1.40625 0l-3.15625 8.4375q-0.5 1.375 -0.78125 1.890625q-0.375 0.6875 -0.859375 1.015625q-0.484375 0.328125 -1.15625 0.328125q-0.40625 0 -0.90625 -0.171875zm12.6796875 -3.203125l0 -11.453125l4.328125 0q1.140625 0 1.734375 0.109375q0.84375 0.140625 1.40625 0.53125q0.578125 0.390625 0.921875 1.109375q0.359375 0.703125 0.359375 1.5625q0 1.453125 -0.9375 2.46875q-0.921875 1.015625 -3.359375 1.015625l-2.9375 0l0 4.65625l-1.515625 0zm1.515625 -6.015625l2.96875 0q1.46875 0 2.078125 -0.546875q0.625 -0.546875 0.625 -1.53125q0 -0.71875 -0.375 -1.234375q-0.359375 -0.515625 -0.953125 -0.671875q-0.375 -0.109375 -1.40625 -0.109375l-2.9375 0l0 4.09375zm14.390625 4.984375q-0.78125 0.671875 -1.5 0.953125q-0.71875 0.265625 -1.546875 0.265625q-1.375 0 -2.109375 -0.671875q-0.734375 -0.671875 -0.734375 -1.703125q0 -0.609375 0.28125 -1.109375q0.28125 -0.515625 0.71875 -0.8125q0.453125 -0.3125 1.015625 -0.46875q0.421875 -0.109375 1.25 -0.203125q1.703125 -0.203125 2.515625 -0.484375q0 -0.296875 0 -0.375q0 -0.859375 -0.390625 -1.203125q-0.546875 -0.484375 -1.609375 -0.484375q-0.984375 0 -1.46875 0.359375q-0.46875 0.34375 -0.6875 1.21875l-1.375 -0.1875q0.1875 -0.875 0.609375 -1.421875q0.4375 -0.546875 1.25 -0.828125q0.8125 -0.296875 1.875 -0.296875q1.0625 0 1.71875 0.25q0.671875 0.25 0.984375 0.625q0.3125 0.375 0.4375 0.953125q0.078125 0.359375 0.078125 1.296875l0 1.875q0 1.96875 0.078125 2.484375q0.09375 0.515625 0.359375 1.0l-1.46875 0q-0.21875 -0.4375 -0.28125 -1.03125zm-0.109375 -3.140625q-0.765625 0.3125 -2.296875 0.53125q-0.875 0.125 -1.234375 0.28125q-0.359375 0.15625 -0.5625 0.46875q-0.1875 0.296875 -0.1875 0.65625q0 0.5625 0.421875 0.9375q0.4375 0.375 1.25 0.375q0.8125 0 1.4375 -0.34375q0.640625 -0.359375 0.9375 -0.984375q0.234375 -0.46875 0.234375 -1.40625l0 -0.515625zm6.6640625 2.90625l0.203125 1.25q-0.59375 0.125 -1.0625 0.125q-0.765625 0 -1.1875 -0.234375q-0.421875 -0.25 -0.59375 -0.640625q-0.171875 -0.40625 -0.171875 -1.671875l0 -4.765625l-1.03125 0l0 -1.09375l1.03125 0l0 -2.0625l1.40625 -0.84375l0 2.90625l1.40625 0l0 1.09375l-1.40625 0l0 4.84375q0 0.609375 0.0625 0.78125q0.078125 0.171875 0.25 0.28125q0.171875 0.09375 0.484375 0.09375q0.234375 0 0.609375 -0.0625zm1.3671875 1.265625l0 -8.296875l1.265625 0l0 1.25q0.484375 -0.875 0.890625 -1.15625q0.40625 -0.28125 0.90625 -0.28125q0.703125 0 1.4375 0.453125l-0.484375 1.296875q-0.515625 -0.296875 -1.03125 -0.296875q-0.453125 0 -0.828125 0.28125q-0.359375 0.265625 -0.515625 0.765625q-0.234375 0.75 -0.234375 1.640625l0 4.34375l-1.40625 0zm5.34375 -9.84375l0 -1.609375l1.40625 0l0 1.609375l-1.40625 0zm0 9.84375l0 -8.296875l1.40625 0l0 8.296875l-1.40625 0zm8.9609375 -3.046875l1.390625 0.1875q-0.234375 1.421875 -1.171875 2.234375q-0.921875 0.8125 -2.28125 0.8125q-1.703125 0 -2.75 -1.109375q-1.03125 -1.125 -1.03125 -3.203125q0 -1.34375 0.4375 -2.34375q0.453125 -1.015625 1.359375 -1.515625q0.921875 -0.5 1.984375 -0.5q1.359375 0 2.21875 0.6875q0.859375 0.671875 1.09375 1.9375l-1.359375 0.203125q-0.203125 -0.828125 -0.703125 -1.25q-0.484375 -0.421875 -1.1875 -0.421875q-1.0625 0 -1.734375 0.765625q-0.65625 0.75 -0.65625 2.40625q0 1.671875 0.640625 2.4375q0.640625 0.75 1.671875 0.75q0.828125 0 1.375 -0.5q0.5625 -0.515625 0.703125 -1.578125zm2.59375 3.046875l0 -11.453125l1.40625 0l0 6.53125l3.328125 -3.375l1.828125 0l-3.171875 3.078125l3.484375 5.21875l-1.734375 0l-2.734375 -4.25l-1.0 0.953125l0 3.296875l-1.40625 0zm12.6171875 0l0 -11.453125l3.953125 0q1.328125 0 2.03125 0.15625q0.984375 0.234375 1.6875 0.828125q0.90625 0.765625 1.34375 1.953125q0.453125 1.1875 0.453125 2.71875q0 1.3125 -0.3125 2.328125q-0.296875 1.0 -0.78125 1.65625q-0.46875 0.65625 -1.03125 1.046875q-0.5625 0.375 -1.375 0.578125q-0.796875 0.1875 -1.828125 0.1875l-4.140625 0zm1.515625 -1.359375l2.453125 0q1.125 0 1.765625 -0.203125q0.65625 -0.21875 1.03125 -0.59375q0.546875 -0.546875 0.84375 -1.453125q0.296875 -0.90625 0.296875 -2.203125q0 -1.796875 -0.59375 -2.765625q-0.578125 -0.96875 -1.421875 -1.296875q-0.609375 -0.234375 -1.96875 -0.234375l-2.40625 0l0 8.75zm10.2578125 1.359375l0 -1.609375l1.609375 0l0 1.609375l-1.609375 0zm8.609375 0l0 -11.453125l1.515625 0l0 10.09375l5.640625 0l0 1.359375l-7.15625 0zm14.1953125 -1.03125q-0.78125 0.671875 -1.5 0.953125q-0.71875 0.265625 -1.546875 0.265625q-1.375 0 -2.109375 -0.671875q-0.734375 -0.671875 -0.734375 -1.703125q0 -0.609375 0.28125 -1.109375q0.28125 -0.515625 0.71875 -0.8125q0.453125 -0.3125 1.015625 -0.46875q0.421875 -0.109375 1.25 -0.203125q1.703125 -0.203125 2.515625 -0.484375q0 -0.296875 0 -0.375q0 -0.859375 -0.390625 -1.203125q-0.546875 -0.484375 -1.609375 -0.484375q-0.984375 0 -1.46875 0.359375q-0.46875 0.34375 -0.6875 1.21875l-1.375 -0.1875q0.1875 -0.875 0.609375 -1.421875q0.4375 -0.546875 1.25 -0.828125q0.8125 -0.296875 1.875 -0.296875q1.0625 0 1.71875 0.25q0.671875 0.25 0.984375 0.625q0.3125 0.375 0.4375 0.953125q0.078125 0.359375 0.078125 1.296875l0 1.875q0 1.96875 0.078125 2.484375q0.09375 0.515625 0.359375 1.0l-1.46875 0q-0.21875 -0.4375 -0.28125 -1.03125zm-0.109375 -3.140625q-0.765625 0.3125 -2.296875 0.53125q-0.875 0.125 -1.234375 0.28125q-0.359375 0.15625 -0.5625 0.46875q-0.1875 0.296875 -0.1875 0.65625q0 0.5625 0.421875 0.9375q0.4375 0.375 1.25 0.375q0.8125 0 1.4375 -0.34375q0.640625 -0.359375 0.9375 -0.984375q0.234375 -0.46875 0.234375 -1.40625l0 -0.515625zm3.6015625 4.171875l0 -8.296875l1.265625 0l0 1.171875q0.90625 -1.359375 2.640625 -1.359375q0.75 0 1.375 0.265625q0.625 0.265625 0.9375 0.703125q0.3125 0.4375 0.4375 1.046875q0.078125 0.390625 0.078125 1.359375l0 5.109375l-1.40625 0l0 -5.046875q0 -0.859375 -0.171875 -1.28125q-0.15625 -0.4375 -0.578125 -0.6875q-0.40625 -0.25 -0.96875 -0.25q-0.90625 0 -1.5625 0.578125q-0.640625 0.5625 -0.640625 2.15625l0 4.53125l-1.40625 0zm14.2734375 0l0 -1.046875q-0.78125 1.234375 -2.3125 1.234375q-1.0 0 -1.828125 -0.546875q-0.828125 -0.546875 -1.296875 -1.53125q-0.453125 -0.984375 -0.453125 -2.25q0 -1.25 0.40625 -2.25q0.421875 -1.015625 1.25 -1.546875q0.828125 -0.546875 1.859375 -0.546875q0.75 0 1.328125 0.3125q0.59375 0.3125 0.953125 0.828125l0 -4.109375l1.40625 0l0 11.453125l-1.3125 0zm-4.4375 -4.140625q0 1.59375 0.671875 2.390625q0.671875 0.78125 1.578125 0.78125q0.921875 0 1.5625 -0.75q0.65625 -0.765625 0.65625 -2.3125q0 -1.703125 -0.65625 -2.5q-0.65625 -0.796875 -1.625 -0.796875q-0.9375 0 -1.5625 0.765625q-0.625 0.765625 -0.625 2.421875zm7.8984375 7.34375l-0.15625 -1.328125q0.453125 0.125 0.796875 0.125q0.46875 0 0.75 -0.15625q0.28125 -0.15625 0.46875 -0.4375q0.125 -0.203125 0.421875 -1.046875q0.046875 -0.109375 0.125 -0.34375l-3.140625 -8.3125l1.515625 0l1.71875 4.796875q0.34375 0.921875 0.609375 1.921875q0.234375 -0.96875 0.578125 -1.890625l1.765625 -4.828125l1.40625 0l-3.15625 8.4375q-0.5 1.375 -0.78125 1.890625q-0.375 0.6875 -0.859375 1.015625q-0.484375 0.328125 -1.15625 0.328125q-0.40625 0 -0.90625 -0.171875z" fill-rule="nonzero"/></g></svg>