<!DOCTYPE svg PUBLIC "-//W3C//DTD SVG 20010904//EN" "http://www.w3.org/TR/2001/REC-SVG-20010904/DTD/svg10.dtd">
<svg version="1.0" xmlns="http://www.w3.org/2000/svg" width="321px" height="136px" viewBox="0 0 3210 1360" preserveAspectRatio="xMidYMid meet">
<g id="layer101" fill="#010101" stroke="none">
 <path d="M0 680 l0 -680 1605 0 1605 0 0 680 0 680 -1605 0 -1605 0 0 -680z"/>
 </g>
<g id="layer102" fill="#000053" stroke="none">
 <path d="M0 680 l0 -680 1605 0 1605 0 0 680 0 680 -1605 0 -1605 0 0 -680z m860 435 c11 -13 10 -14 -4 -9 -9 3 -16 10 -16 15 0 13 6 11 20 -6z m1408 -21 c10 -20 9 -28 -3 -40 -8 -9 -15 -20 -15 -26 0 -6 -2 -9 -5 -6 -3 2 0 19 6 37 8 24 8 35 -1 46 -7 8 -8 15 -3 15 5 0 15 -12 21 -26z m-1514 -58 c1 -24 -1 -53 -5 -63 -4 -10 -8 12 -8 51 -1 75 10 85 13 12z m46 44 c8 -5 12 -11 10 -14 -3 -2 -14 2 -24 10 -22 15 -10 19 14 4z m106 -87 c-2 -2 -9 11 -16 31 -6 19 -16 36 -22 38 -7 3 -8 10 -3 18 6 9 14 -1 27 -35 10 -26 17 -50 14 -52z m267 79 c-4 -9 -9 -10 -19 -1 -15 12 -44 6 -44 -9 0 -5 15 -13 33 -17 29 -7 30 -8 8 -12 -28 -6 -56 19 -48 41 5 11 17 15 40 14 23 -2 33 -7 30 -16z m57 4 c-6 -8 -11 -30 -10 -48 3 -55 1 -65 -9 -49 -5 8 -7 30 -4 50 7 51 11 61 24 61 8 0 8 -4 -1 -14z m56 -66 c8 0 14 -4 14 -10 0 -5 -9 -10 -20 -10 -18 0 -20 6 -18 53 1 50 2 50 5 10 3 -29 9 -43 19 -43z m41 3 c-2 -16 -4 -3 -4 27 0 30 2 43 4 28 2 -16 2 -40 0 -55z m91 65 c7 -7 12 -17 12 -22 0 -6 -5 -3 -11 7 -5 9 -16 17 -24 17 -8 0 -19 -8 -24 -17 -6 -10 -11 -13 -11 -7 0 13 21 34 35 34 6 0 16 -5 23 -12z m52 -38 c5 0 18 12 30 28 l21 27 -17 -32 c-17 -31 -17 -33 1 -53 10 -11 13 -20 8 -20 -6 0 -16 7 -23 15 -19 23 -28 18 -33 -17 -2 -18 -4 -1 -4 37 0 39 2 58 4 43 2 -16 8 -28 13 -28z m201 40 c10 -6 19 -18 19 -28 -1 -16 -1 -16 -11 1 -6 11 -22 17 -44 17 -19 0 -35 5 -35 10 0 13 46 13 71 0z m66 -7 c-4 -3 -7 0 -7 7 0 7 3 10 7 7 3 -4 3 -10 0 -14z m163 7 c0 -5 -13 -10 -30 -10 -28 0 -29 -1 -33 -57 l-3 -58 -2 68 -2 67 35 0 c19 0 35 -4 35 -10z m78 4 c18 -5 22 -13 22 -45 0 -21 -5 -41 -11 -44 -14 -10 -59 3 -59 16 0 8 5 7 15 -1 16 -13 45 -7 45 9 0 5 -13 12 -30 16 -16 4 -30 11 -30 16 0 6 8 6 19 -1 27 -14 41 -13 41 4 0 17 -35 30 -51 20 -8 -4 -9 -3 -5 4 8 14 12 14 44 6z m78 -74 c11 -10 18 -9 31 1 14 12 16 12 11 -1 -3 -9 -17 -15 -36 -15 -32 -1 -32 -1 -30 50 1 42 2 44 5 13 2 -20 11 -42 19 -48z m128 74 c9 -3 16 -11 16 -16 0 -6 -6 -5 -15 2 -23 19 -45 4 -45 -30 0 -38 27 -52 46 -25 14 18 14 18 14 -1 0 -22 -36 -30 -57 -12 -16 13 -17 60 -1 76 14 14 20 14 42 6z m-1331 -66 c-3 -16 -9 -28 -14 -28 -4 0 -3 14 3 31 12 36 18 35 11 -3z m1434 15 c-4 -3 -7 0 -7 7 0 7 3 10 7 7 3 -4 3 -10 0 -14z m-1217 -19 c7 -7 9 -22 5 -34 -5 -16 -14 -20 -48 -19 l-42 2 40 6 c31 5 40 10 40 26 0 16 -8 21 -37 23 -21 2 -38 7 -38 11 0 12 69 0 80 -15z m342 -5 c22 13 22 13 5 -5 -19 -20 -47 -12 -55 17 -2 8 3 5 11 -6 14 -18 18 -18 39 -6z m-612 -9 c-24 -15 -36 -11 -14 4 10 8 21 12 24 10 2 -3 -2 -9 -10 -14z m350 3 c11 3 18 1 14 -4 -9 -15 -41 -10 -55 9 -13 15 -12 16 3 3 10 -7 27 -11 38 -8z m1147 0 c-4 -3 -7 0 -7 7 0 7 3 10 7 7 3 -4 3 -10 0 -14z m-60 -10 c-4 -3 -7 0 -7 7 0 7 3 10 7 7 3 -4 3 -10 0 -14z m-557 -18 c-7 -9 -27 -14 -49 -13 l-36 1 38 4 c21 3 41 11 44 19 3 8 8 13 11 10 3 -3 -1 -12 -8 -21z m1170 -385 l110 -164 -37 -15 c-33 -13 -38 -13 -47 3 -6 9 -39 61 -74 114 l-63 97 5 -65 c4 -36 9 -97 13 -135 l6 -71 -43 -17 c-24 -9 -44 -16 -45 -14 -1 1 -36 51 -78 111 -44 62 -77 101 -77 90 0 -10 7 -64 15 -119 20 -135 20 -132 -15 -140 -44 -10 -45 -9 -50 40 -3 25 -8 45 -12 45 -5 0 -53 0 -108 0 l-100 0 0 -40 0 -39 108 -3 107 -3 3 -32 3 -33 -150 0 -151 0 0 195 0 194 132 3 132 3 1 29 c0 24 6 31 37 42 43 15 31 27 148 -141 l62 -90 -6 85 c-4 47 -9 115 -13 151 l-6 65 34 11 c19 6 37 10 42 9 4 0 56 -75 117 -166z m-1680 127 c0 -22 -39 -129 -56 -155 -19 -28 -19 -28 29 -35 l37 -6 0 65 0 64 35 0 35 0 0 -125 c0 -69 4 -125 9 -125 5 0 18 39 30 88 44 177 37 162 80 162 l39 0 33 -132 34 -133 3 133 3 132 39 0 40 0 0 -195 0 -195 -59 0 c-68 0 -61 -10 -101 150 -32 128 -27 132 -80 -67 l-22 -83 -59 0 -59 0 0 40 c0 36 -2 40 -17 31 -17 -8 -207 -61 -222 -61 -4 0 -17 43 -30 95 -22 87 -41 115 -41 61 0 -29 -36 -82 -73 -110 -40 -30 -178 -30 -222 -1 -32 22 -185 58 -198 46 -4 -4 -8 -25 -10 -46 l-2 -39 65 -13 c106 -21 110 -23 110 -41 -1 -44 -11 -46 -133 -22 -63 12 -120 26 -127 30 -10 6 -4 48 26 195 l38 187 34 -6 c19 -3 37 -7 39 -10 3 -2 -2 -39 -11 -81 -9 -43 -16 -78 -16 -80 0 -1 17 -5 38 -9 20 -3 46 -8 57 -12 19 -5 20 -1 17 51 -5 81 5 120 41 162 39 44 82 63 144 63 49 0 124 -28 138 -50 5 -9 9 -9 14 -1 9 14 69 32 75 23 2 -4 12 -40 22 -79 10 -41 24 -73 31 -73 29 0 65 49 92 125 23 63 33 81 52 86 39 11 59 10 59 -4z m680 -70 c0 -1 34 -96 75 -211 41 -115 75 -211 75 -213 0 -2 -21 -3 -47 -1 l-46 3 -52 155 -51 154 -31 -84 c-17 -47 -41 -118 -54 -157 l-23 -73 -48 0 c-26 0 -48 1 -48 3 0 1 34 96 75 211 41 115 75 210 75 212 0 2 23 4 50 4 28 0 50 -1 50 -3z m270 -192 l0 -195 -40 0 -40 0 0 195 0 195 40 0 40 0 0 -195z"/>
 <path d="M2257 523 c-4 -3 -7 -28 -7 -54 l0 -48 104 -3 103 -3 -4 45 c-7 72 -4 70 -101 70 -49 0 -92 -3 -95 -7z"/>
 <path d="M615 590 c-36 -38 -47 -128 -21 -178 33 -64 118 -78 165 -28 49 52 45 176 -6 216 -40 32 -102 27 -138 -10z"/>
 <path d="M1030 463 c-30 -8 -56 -16 -57 -17 -1 -1 4 -22 11 -46 15 -51 22 -52 106 -21 36 13 46 22 48 43 2 18 -4 31 -20 42 -12 9 -25 16 -28 15 -3 0 -30 -8 -60 -16z"/>
 </g>
<g id="layer103" fill="#570001" stroke="none">
 <path d="M0 680 l0 -680 1605 0 1605 0 0 680 0 680 -1605 0 -1605 0 0 -680z m868 432 c2 -7 -2 -10 -12 -6 -9 3 -16 11 -16 16 0 13 23 5 28 -10z m1403 -19 c7 -18 7 -29 0 -31 -5 -2 -15 -19 -21 -38 -7 -20 -14 -34 -16 -31 -2 2 3 25 12 51 13 37 14 50 4 61 -9 11 -9 15 -1 15 6 0 16 -12 22 -27z m-1460 -24 c21 -33 -4 -88 -35 -76 -12 5 -20 0 -26 -16 -6 -16 -9 -5 -9 44 l-1 66 31 -2 c17 -1 35 -8 40 -16z m93 -59 c3 -15 0 -11 -10 10 -9 19 -21 38 -26 41 -6 4 -7 13 -2 20 8 14 24 -17 38 -71z m131 20 c35 0 50 -19 40 -51 -5 -14 -16 -19 -46 -19 l-39 0 2 68 c0 37 3 52 5 35 4 -30 7 -33 38 -33z m145 20 c0 -55 -41 -80 -70 -45 -14 17 0 21 17 4 13 -13 43 -5 43 11 0 5 -11 10 -24 10 -28 0 -51 24 -42 45 4 10 17 14 41 13 33 -3 35 -5 35 -38z m60 30 c0 -5 -4 -10 -10 -10 -13 0 -13 -57 0 -65 6 -4 5 -11 -3 -19 -17 -19 -26 0 -20 43 2 20 6 42 9 49 4 14 24 16 24 2z m46 -70 c8 0 14 -4 14 -10 0 -5 -9 -10 -20 -10 -18 0 -20 6 -18 53 1 50 2 50 5 10 3 -29 9 -43 19 -43z m41 3 c-2 -16 -4 -3 -4 27 0 30 2 43 4 28 2 -16 2 -40 0 -55z m101 52 c4 -20 3 -20 -11 -1 -20 28 -47 14 -47 -24 0 -34 22 -49 45 -30 9 8 15 8 15 2 0 -17 -39 -25 -55 -12 -18 15 -20 61 -3 78 18 18 52 10 56 -13z m39 -15 c3 -11 10 -8 29 15 27 34 32 27 8 -11 -16 -23 -15 -26 1 -44 10 -11 13 -20 8 -20 -6 0 -16 7 -23 15 -19 23 -28 18 -33 -17 -2 -18 -4 -1 -5 37 0 39 2 63 5 55 2 -8 7 -22 10 -30z m213 20 c42 -42 13 -110 -46 -110 l-34 0 0 65 0 65 30 0 c17 0 39 -9 50 -20z m57 3 c-4 -3 -7 0 -7 7 0 7 3 10 7 7 3 -4 3 -10 0 -14z m168 7 c4 -6 -8 -10 -29 -10 l-35 0 -4 -57 -3 -58 -2 68 -2 67 34 0 c19 0 38 -4 41 -10z m73 4 c18 -5 22 -13 22 -45 0 -21 -5 -41 -11 -44 -14 -10 -59 3 -59 16 0 8 5 7 15 -1 16 -13 45 -7 45 9 0 5 -13 12 -30 16 -19 4 -30 13 -30 24 0 30 10 35 48 25z m78 -74 c11 -10 18 -9 31 1 14 12 16 12 11 -1 -3 -9 -17 -15 -36 -15 -32 -1 -32 -1 -30 50 1 42 2 44 5 13 2 -20 11 -42 19 -48z m128 74 c9 -3 16 -11 16 -16 0 -7 -5 -6 -14 1 -21 18 -46 2 -46 -29 0 -35 29 -49 47 -24 12 17 13 17 13 -2 0 -22 -36 -30 -57 -12 -16 13 -17 60 -1 76 14 14 20 14 42 6z m-1331 -66 c-3 -16 -9 -28 -14 -28 -4 0 -3 14 3 31 12 36 18 35 11 -3z m1446 0 c6 -18 7 -28 2 -23 -10 12 -25 55 -18 55 3 0 10 -15 16 -32z m551 -428 l110 -164 -37 -15 c-33 -13 -38 -13 -47 3 -6 9 -39 61 -74 114 l-63 97 5 -65 c4 -36 9 -97 13 -135 l6 -71 -43 -17 c-24 -9 -44 -16 -45 -14 -1 1 -36 51 -78 111 -44 62 -77 101 -77 90 0 -10 7 -64 15 -119 20 -135 20 -132 -15 -140 -44 -10 -45 -9 -50 40 -3 25 -8 45 -12 45 -5 0 -53 0 -108 0 l-100 0 0 -40 0 -39 108 -3 107 -3 3 -32 3 -33 -150 0 -151 0 0 195 0 194 132 3 132 3 1 29 c0 24 6 31 37 42 43 15 31 27 148 -141 l62 -90 -6 85 c-4 47 -9 115 -13 151 l-6 65 34 11 c19 6 37 10 42 9 4 0 56 -75 117 -166z m-1680 127 c0 -22 -39 -129 -56 -155 -19 -28 -19 -28 29 -35 l37 -6 0 65 0 64 35 0 35 0 0 -125 c0 -69 4 -125 9 -125 5 0 18 39 30 88 44 177 37 162 80 162 l39 0 33 -132 34 -133 3 133 3 132 39 0 40 0 0 -195 0 -195 -59 0 c-68 0 -61 -10 -101 150 -32 128 -27 132 -80 -67 l-22 -83 -59 0 -59 0 0 40 c0 36 -2 40 -17 31 -17 -8 -207 -61 -222 -61 -4 0 -17 43 -30 95 -22 87 -41 115 -41 61 0 -29 -36 -82 -73 -110 -40 -30 -178 -30 -222 -1 -32 22 -185 58 -198 46 -4 -4 -8 -25 -10 -46 l-2 -39 65 -13 c106 -21 110 -23 110 -41 -1 -44 -11 -46 -133 -22 -63 12 -120 26 -127 30 -10 6 -4 48 26 195 l38 187 34 -6 c19 -3 37 -7 39 -10 3 -2 -2 -39 -11 -81 -9 -43 -16 -78 -16 -80 0 -1 17 -5 38 -9 20 -3 46 -8 57 -12 19 -5 20 -1 17 51 -5 81 5 120 41 162 39 44 82 63 144 63 49 0 124 -28 138 -50 5 -9 9 -9 14 -1 9 14 69 32 75 23 2 -4 12 -40 22 -79 10 -41 24 -73 31 -73 29 0 65 49 92 125 23 63 33 81 52 86 39 11 59 10 59 -4z m680 -70 c0 -1 34 -96 75 -211 41 -115 75 -211 75 -213 0 -2 -21 -3 -47 -1 l-46 3 -52 155 -51 154 -31 -84 c-17 -47 -41 -118 -54 -157 l-23 -73 -48 0 c-26 0 -48 1 -48 3 0 1 34 96 75 211 41 115 75 210 75 212 0 2 23 4 50 4 28 0 50 -1 50 -3z m270 -192 l0 -195 -40 0 -40 0 0 195 0 195 40 0 40 0 0 -195z"/>
 <path d="M762 1068 c-28 -28 3 -83 33 -58 8 7 15 20 15 29 0 17 -18 41 -30 41 -3 0 -11 -5 -18 -12z"/>
 <path d="M1000 995 c0 -24 3 -26 33 -23 24 2 32 8 32 23 0 15 -8 21 -32 23 -30 3 -33 1 -33 -23z"/>
 <path d="M1115 1069 c-9 -13 -7 -15 28 -23 29 -7 35 2 15 22 -15 15 -35 15 -43 1z"/>
 <path d="M1610 1020 c0 -49 1 -50 30 -50 23 0 33 6 42 25 17 38 -3 75 -42 75 -29 0 -30 -1 -30 -50z"/>
 <path d="M1944 1069 c-7 -12 12 -29 34 -29 18 0 15 27 -4 34 -21 8 -22 8 -30 -5z"/>
 <path d="M2257 523 c-4 -3 -7 -28 -7 -54 l0 -48 104 -3 103 -3 -4 45 c-7 72 -4 70 -101 70 -49 0 -92 -3 -95 -7z"/>
 <path d="M615 590 c-36 -38 -47 -128 -21 -178 33 -64 118 -78 165 -28 49 52 45 176 -6 216 -40 32 -102 27 -138 -10z"/>
 <path d="M1030 463 c-30 -8 -56 -16 -57 -17 -1 -1 4 -22 11 -46 15 -51 22 -52 106 -21 36 13 46 22 48 43 2 18 -4 31 -20 42 -12 9 -25 16 -28 15 -3 0 -30 -8 -60 -16z"/>
 </g>
<g id="layer104" fill="#01146c" stroke="none">
 <path d="M0 680 l0 -680 1605 0 1605 0 0 680 0 680 -1605 0 -1605 0 0 -680z m887 381 c13 -35 22 -66 19 -68 -2 -2 -9 12 -16 31 -15 45 -27 46 -36 1 -3 -19 -10 -35 -15 -35 -5 0 0 23 10 50 17 43 17 52 5 64 -17 18 -18 29 -2 24 6 -2 22 -33 35 -67z m1370 57 c13 -17 54 -128 47 -128 -3 0 -12 17 -21 38 l-16 37 -18 -40 c-22 -51 -24 -34 -2 23 16 42 16 45 0 57 -9 7 -17 15 -17 19 0 10 17 7 27 -6z m-1446 -49 c21 -33 -4 -88 -35 -76 -12 5 -20 0 -26 -16 -6 -16 -9 -5 -9 45 l-1 66 31 -2 c17 -1 35 -9 40 -17z m189 -9 c0 -27 3 -30 34 -30 36 0 51 -18 41 -51 -5 -15 -16 -19 -51 -19 l-44 0 0 65 c0 37 4 65 10 65 6 0 10 -13 10 -30z m180 -10 c0 -55 -41 -80 -70 -45 -14 17 0 21 17 4 6 -6 16 -8 22 -5 19 12 12 23 -19 30 -20 4 -30 11 -30 24 0 27 9 32 47 29 31 -2 33 -4 33 -37z m60 30 c0 -5 -4 -10 -10 -10 -14 0 -12 -54 2 -68 9 -9 9 -12 0 -12 -7 0 -12 -8 -13 -17 0 -15 -2 -15 -8 2 -8 18 -5 71 5 103 4 14 24 16 24 2z m46 -70 c8 0 14 -4 14 -10 0 -5 -9 -10 -20 -10 -18 0 -20 6 -18 53 1 50 2 50 5 10 3 -29 9 -43 19 -43z m41 3 c-2 -16 -4 -3 -4 27 0 30 2 43 4 28 2 -16 2 -40 0 -55z m101 52 c4 -20 3 -20 -11 -1 -20 28 -47 14 -47 -24 0 -34 22 -49 45 -30 9 7 15 8 15 2 0 -14 -29 -24 -51 -17 -14 5 -19 16 -19 45 0 21 6 41 13 44 24 10 52 1 55 -19z m38 -15 c4 -10 11 -6 29 15 28 34 33 27 9 -11 -16 -23 -15 -26 1 -44 10 -11 13 -20 8 -20 -6 0 -16 7 -23 15 -19 23 -28 18 -33 -17 -2 -18 -4 -1 -5 37 0 39 2 63 5 55 2 -8 7 -22 9 -30z m214 20 c24 -24 26 -57 4 -88 -11 -16 -25 -22 -55 -22 l-39 0 0 65 0 65 35 0 c22 0 43 -8 55 -20z m57 3 c-4 -3 -7 0 -7 7 0 7 3 10 7 7 3 -4 3 -10 0 -14z m168 7 c4 -6 -8 -10 -29 -10 l-35 0 -4 -57 -3 -58 -2 68 -2 67 34 0 c19 0 38 -4 41 -10z m93 -40 c-3 -42 -5 -45 -32 -45 -17 0 -31 6 -34 15 -5 13 -3 13 11 1 18 -14 47 -9 47 9 0 5 -11 10 -25 10 -28 0 -50 31 -33 48 6 6 24 10 40 9 28 -2 29 -4 26 -47z m58 -31 c20 -17 32 -2 37 46 3 33 4 31 3 -10 -1 -49 -1 -50 -33 -50 l-33 -1 2 51 c1 42 2 44 5 13 2 -20 11 -42 19 -49z m143 11 c-1 -36 -4 -55 -6 -43 -3 14 -9 20 -19 16 -21 -8 -44 16 -44 46 0 34 17 51 47 49 22 -2 23 -6 22 -68z m651 -430 l110 -164 -37 -15 c-33 -13 -38 -13 -47 3 -6 9 -39 61 -74 114 l-63 97 5 -65 c4 -36 9 -97 13 -135 l6 -71 -43 -17 c-24 -9 -44 -16 -45 -14 -1 1 -36 51 -78 111 -44 62 -77 101 -77 90 0 -10 7 -64 15 -119 20 -135 20 -132 -15 -140 -44 -10 -45 -9 -50 40 -3 25 -8 45 -12 45 -5 0 -53 0 -108 0 l-100 0 0 -40 0 -39 108 -3 107 -3 3 -32 3 -33 -150 0 -151 0 0 195 0 194 132 3 132 3 1 29 c0 24 6 31 37 42 43 15 31 27 148 -141 l62 -90 -6 85 c-4 47 -9 115 -13 151 l-6 65 34 11 c19 6 37 10 42 9 4 0 56 -75 117 -166z m-1680 127 c0 -22 -39 -129 -56 -155 -19 -28 -19 -28 29 -35 l37 -6 0 65 0 64 35 0 35 0 0 -125 c0 -69 4 -125 9 -125 5 0 18 39 30 88 44 177 37 162 80 162 l39 0 33 -132 34 -133 3 133 3 132 39 0 40 0 0 -195 0 -195 -59 0 c-68 0 -61 -10 -101 150 -32 128 -27 132 -80 -67 l-22 -83 -59 0 -59 0 0 40 c0 36 -2 40 -17 31 -17 -8 -207 -61 -222 -61 -4 0 -17 43 -30 95 -22 87 -41 115 -41 61 0 -29 -36 -82 -73 -110 -40 -30 -178 -30 -222 -1 -32 22 -185 58 -198 46 -4 -4 -8 -25 -10 -46 l-2 -39 65 -13 c106 -21 110 -23 110 -41 -1 -44 -11 -46 -133 -22 -63 12 -120 26 -127 30 -10 6 -4 48 26 195 l38 187 34 -6 c19 -3 37 -7 39 -10 3 -2 -2 -39 -11 -81 -9 -43 -16 -78 -16 -80 0 -1 17 -5 38 -9 20 -3 46 -8 57 -12 19 -5 20 -1 17 51 -5 81 5 120 41 162 39 44 82 63 144 63 49 0 124 -28 138 -50 5 -9 9 -9 14 -1 9 14 69 32 75 23 2 -4 12 -40 22 -79 10 -41 24 -73 31 -73 29 0 65 49 92 125 23 63 33 81 52 86 39 11 59 10 59 -4z m680 -70 c0 -1 34 -96 75 -211 41 -115 75 -211 75 -213 0 -2 -21 -3 -47 -1 l-46 3 -52 155 -51 154 -31 -84 c-17 -47 -41 -118 -54 -157 l-23 -73 -48 0 c-26 0 -48 1 -48 3 0 1 34 96 75 211 41 115 75 210 75 212 0 2 23 4 50 4 28 0 50 -1 50 -3z m270 -192 l0 -195 -40 0 -40 0 0 195 0 195 40 0 40 0 0 -195z"/>
 <path d="M762 1068 c-21 -21 -7 -68 20 -68 17 0 29 40 18 60 -12 23 -21 25 -38 8z"/>
 <path d="M1000 995 c0 -21 5 -25 29 -25 31 0 46 21 28 39 -6 6 -21 11 -34 11 -18 0 -23 -6 -23 -25z"/>
 <path d="M1117 1074 c-13 -13 -7 -22 18 -27 20 -3 25 -1 23 12 -3 17 -29 26 -41 15z"/>
 <path d="M1610 1021 c0 -47 2 -51 24 -51 32 0 48 22 44 62 -3 29 -7 33 -35 36 l-33 3 0 -50z"/>
 <path d="M1945 1069 c-8 -13 -6 -15 23 -23 24 -8 29 3 10 22 -15 15 -25 15 -33 1z"/>
 <path d="M2153 1073 c-19 -7 -16 -60 4 -67 23 -9 35 6 31 40 -3 28 -13 36 -35 27z"/>
 <path d="M2257 523 c-4 -3 -7 -28 -7 -54 l0 -48 104 -3 103 -3 -4 45 c-7 72 -4 70 -101 70 -49 0 -92 -3 -95 -7z"/>
 <path d="M615 590 c-36 -38 -47 -128 -21 -178 33 -64 118 -78 165 -28 49 52 45 176 -6 216 -40 32 -102 27 -138 -10z"/>
 <path d="M1030 463 c-30 -8 -56 -16 -57 -17 -1 -1 4 -22 11 -46 15 -51 22 -52 106 -21 36 13 46 22 48 43 2 18 -4 31 -20 42 -12 9 -25 16 -28 15 -3 0 -30 -8 -60 -16z"/>
 </g>
<g id="layer105" fill="#651a06" stroke="none">
 <path d="M0 680 l0 -680 1605 0 1605 0 0 680 0 680 -1605 0 -1605 0 0 -680z m887 385 c27 -70 29 -97 3 -40 l-18 40 -11 -28 c-6 -16 -11 -33 -11 -38 0 -5 -4 -9 -10 -9 -5 0 -1 23 9 50 17 43 17 52 5 64 -17 18 -18 29 -2 24 7 -3 23 -31 35 -63z m1370 53 c13 -17 54 -128 47 -128 -3 0 -12 17 -21 38 l-16 37 -18 -40 c-22 -51 -24 -34 -2 23 16 42 16 45 0 57 -9 7 -17 15 -17 19 0 10 17 7 27 -6z m-1445 -53 c16 -35 -4 -79 -33 -72 -14 4 -23 -1 -29 -16 -6 -16 -9 -4 -9 43 l-1 66 30 2 c24 2 33 -3 42 -23z m188 -4 c0 -27 3 -30 38 -33 34 -3 37 -6 37 -33 0 -29 -2 -30 -47 -33 l-48 -3 0 65 c0 37 4 66 10 66 6 0 10 -13 10 -29z m178 -21 c-3 -40 -6 -45 -29 -48 -14 -2 -31 4 -39 12 -14 18 0 22 17 5 6 -6 16 -8 22 -5 19 12 12 23 -19 30 -20 4 -30 11 -30 24 0 27 9 32 47 29 34 -2 34 -2 31 -47z m62 40 c0 -5 -4 -10 -10 -10 -14 0 -12 -54 2 -68 9 -9 9 -12 0 -12 -7 0 -12 -8 -13 -17 0 -15 -2 -15 -8 2 -8 18 -5 71 5 103 4 14 24 16 24 2z m46 -70 c8 0 14 -4 14 -10 0 -5 -9 -10 -20 -10 -18 0 -20 6 -18 53 1 50 2 50 5 10 3 -29 9 -43 19 -43z m41 3 c-2 -16 -4 -3 -4 27 0 30 2 43 4 28 2 -16 2 -40 0 -55z m101 52 c4 -19 3 -19 -10 -2 -19 26 -48 12 -48 -23 0 -31 25 -47 46 -29 9 8 14 8 14 1 0 -17 -19 -24 -46 -18 -20 5 -24 12 -24 45 0 22 6 42 13 45 24 10 52 1 55 -19z m38 -15 c4 -10 11 -6 29 15 28 34 33 27 9 -11 -16 -23 -15 -26 1 -44 10 -11 13 -20 8 -20 -6 0 -16 7 -23 15 -19 23 -28 18 -33 -17 -2 -18 -4 -1 -5 37 0 39 2 63 5 55 2 -8 7 -22 9 -30z m214 20 c22 -22 26 -60 10 -91 -8 -14 -21 -19 -55 -19 l-45 0 0 65 0 65 35 0 c22 0 43 -8 55 -20z m57 3 c-4 -3 -7 0 -7 7 0 7 3 10 7 7 3 -4 3 -10 0 -14z m173 7 c0 -5 -16 -10 -35 -10 l-34 0 -4 -57 -3 -58 -2 68 -2 67 40 0 c22 0 40 -4 40 -10z m90 -39 c-5 -43 -7 -46 -34 -46 -17 0 -31 6 -34 15 -5 13 -3 13 11 1 18 -14 47 -9 47 9 0 5 -11 10 -25 10 -28 0 -50 31 -34 47 6 6 25 11 43 10 31 -1 31 -1 26 -46z m56 -32 c20 -17 32 -2 37 46 3 33 4 31 3 -10 -1 -49 -1 -50 -33 -50 l-33 -1 2 51 c1 42 2 44 5 13 2 -20 11 -42 19 -49z m143 11 c-1 -36 -4 -55 -6 -43 -3 14 -9 20 -19 16 -21 -8 -44 16 -44 46 0 34 17 51 47 49 22 -2 23 -6 22 -68z m651 -430 l110 -164 -37 -15 c-33 -13 -38 -13 -47 3 -6 9 -39 61 -74 114 l-63 97 5 -65 c4 -36 9 -97 13 -135 l6 -71 -43 -17 c-24 -9 -44 -16 -45 -14 -1 1 -36 51 -78 111 -44 62 -77 101 -77 90 0 -10 7 -64 15 -119 20 -135 20 -132 -15 -140 -44 -10 -45 -9 -50 40 -3 25 -8 45 -12 45 -5 0 -53 0 -108 0 l-100 0 0 -40 0 -39 108 -3 107 -3 3 -32 3 -33 -150 0 -151 0 0 195 0 194 132 3 132 3 1 29 c0 24 6 31 37 42 43 15 31 27 148 -141 l62 -90 -6 85 c-4 47 -9 115 -13 151 l-6 65 34 11 c19 6 37 10 42 9 4 0 56 -75 117 -166z m-1680 127 c0 -22 -39 -129 -56 -155 -19 -28 -19 -28 29 -35 l37 -6 0 65 0 64 35 0 35 0 0 -125 c0 -69 4 -125 9 -125 5 0 18 39 30 88 44 177 37 162 80 162 l39 0 33 -132 34 -133 3 133 3 132 39 0 40 0 0 -195 0 -195 -59 0 c-68 0 -61 -10 -101 150 -32 128 -27 132 -80 -67 l-22 -83 -59 0 -59 0 0 40 c0 36 -2 40 -17 31 -17 -8 -207 -61 -222 -61 -4 0 -17 43 -30 95 -22 87 -41 115 -41 61 0 -29 -36 -82 -73 -110 -40 -30 -178 -30 -222 -1 -32 22 -185 58 -198 46 -4 -4 -8 -25 -10 -46 l-2 -39 65 -13 c106 -21 110 -23 110 -41 -1 -44 -11 -46 -133 -22 -63 12 -120 26 -127 30 -10 6 -4 48 26 195 l38 187 34 -6 c19 -3 37 -7 39 -10 3 -2 -2 -39 -11 -81 -9 -43 -16 -78 -16 -80 0 -1 17 -5 38 -9 20 -3 46 -8 57 -12 19 -5 20 -1 17 51 -5 81 5 120 41 162 39 44 82 63 144 63 49 0 124 -28 138 -50 5 -9 9 -9 14 -1 9 14 69 32 75 23 2 -4 12 -40 22 -79 10 -41 24 -73 31 -73 29 0 65 49 92 125 23 63 33 81 52 86 39 11 59 10 59 -4z m680 -70 c0 -1 34 -96 75 -211 41 -115 75 -211 75 -213 0 -2 -21 -3 -47 -1 l-46 3 -52 155 -51 154 -31 -84 c-17 -47 -41 -118 -54 -157 l-23 -73 -48 0 c-26 0 -48 1 -48 3 0 1 34 96 75 211 41 115 75 210 75 212 0 2 23 4 50 4 28 0 50 -1 50 -3z m270 -192 l0 -195 -40 0 -40 0 0 195 0 195 40 0 40 0 0 -195z"/>
 <path d="M762 1068 c-21 -21 -7 -68 20 -68 17 0 29 40 18 60 -12 23 -21 25 -38 8z"/>
 <path d="M1000 995 c0 -21 5 -25 29 -25 31 0 46 21 28 39 -6 6 -21 11 -34 11 -18 0 -23 -6 -23 -25z"/>
 <path d="M1117 1074 c-13 -13 -7 -22 18 -27 20 -3 25 -1 23 12 -3 17 -29 26 -41 15z"/>
 <path d="M1610 1021 c0 -47 2 -51 24 -51 32 0 48 22 44 62 -3 29 -7 33 -35 36 l-33 3 0 -50z"/>
 <path d="M1945 1069 c-8 -13 -6 -15 23 -23 24 -8 29 3 10 22 -15 15 -25 15 -33 1z"/>
 <path d="M2152 1068 c-17 -17 -15 -43 3 -58 21 -18 37 0 33 36 -3 31 -18 40 -36 22z"/>
 <path d="M2257 523 c-4 -3 -7 -28 -7 -54 l0 -48 104 -3 103 -3 -4 45 c-7 72 -4 70 -101 70 -49 0 -92 -3 -95 -7z"/>
 <path d="M615 590 c-36 -38 -47 -128 -21 -178 33 -64 118 -78 165 -28 49 52 45 176 -6 216 -40 32 -102 27 -138 -10z"/>
 <path d="M1030 463 c-30 -8 -56 -16 -57 -17 -1 -1 4 -22 11 -46 15 -51 22 -52 106 -21 36 13 46 22 48 43 2 18 -4 31 -20 42 -12 9 -25 16 -28 15 -3 0 -30 -8 -60 -16z"/>
 </g>
<g id="layer106" fill="#5d4716" stroke="none">
 <path d="M0 680 l0 -680 1605 0 1605 0 0 680 0 680 -1605 0 -1605 0 0 -680z m887 385 c27 -71 29 -97 3 -40 l-19 40 -10 -28 c-6 -16 -11 -33 -11 -38 0 -5 -5 -9 -11 -9 -7 0 -8 7 -4 18 22 51 30 95 18 99 -7 3 -13 9 -13 15 0 27 27 -5 47 -57z m1370 53 c18 -23 53 -128 43 -128 -6 0 -10 4 -10 9 0 5 -5 22 -11 38 l-11 28 -18 -40 c-23 -51 -26 -29 -3 26 15 39 15 43 0 54 -10 7 -17 15 -17 19 0 10 17 7 27 -6z m-1445 -53 c16 -35 -3 -75 -36 -75 -15 0 -26 -7 -29 -17 -3 -10 -5 11 -6 47 l-1 66 30 2 c24 2 33 -3 42 -23z m188 -4 c0 -27 3 -30 38 -33 34 -3 37 -6 37 -33 0 -29 -2 -30 -47 -33 l-48 -3 0 65 c0 37 4 66 10 66 6 0 10 -13 10 -29z m178 -21 c-3 -40 -6 -45 -29 -48 -14 -2 -31 4 -39 12 -14 18 0 22 17 5 6 -6 16 -8 22 -5 19 12 12 23 -19 30 -20 4 -30 11 -30 24 0 27 9 32 47 29 34 -2 34 -2 31 -47z m62 40 c0 -5 -4 -10 -10 -10 -14 0 -12 -54 2 -68 9 -9 9 -12 0 -12 -7 0 -12 -8 -13 -17 0 -15 -2 -15 -8 2 -8 18 -5 71 5 103 4 14 24 16 24 2z m46 -70 c8 0 14 -4 14 -10 0 -5 -9 -10 -20 -10 -18 0 -20 6 -18 53 1 50 2 50 5 10 3 -29 9 -43 19 -43z m41 3 c-2 -16 -4 -3 -4 27 0 30 2 43 4 28 2 -16 2 -40 0 -55z m101 53 c4 -18 3 -18 -12 -3 -23 22 -46 11 -46 -23 0 -31 25 -47 46 -29 9 8 14 8 14 1 0 -17 -19 -24 -46 -18 -20 5 -24 12 -24 45 0 22 6 42 13 45 24 10 52 1 55 -18z m38 -16 c4 -10 11 -6 29 15 28 34 33 27 9 -11 -16 -23 -15 -26 1 -44 10 -11 13 -20 8 -20 -6 0 -16 7 -23 15 -19 23 -28 18 -33 -17 -2 -18 -4 -1 -5 37 0 39 2 63 5 55 2 -8 7 -22 9 -30z m214 20 c22 -22 26 -60 10 -91 -8 -14 -21 -19 -55 -19 l-45 0 0 65 0 65 35 0 c22 0 43 -8 55 -20z m57 3 c-4 -3 -7 0 -7 7 0 7 3 10 7 7 3 -4 3 -10 0 -14z m173 7 c0 -5 -16 -10 -35 -10 l-34 0 -4 -57 -3 -58 -2 68 -2 67 40 0 c22 0 40 -4 40 -10z m90 -39 c-5 -43 -7 -46 -34 -46 -17 0 -31 6 -34 15 -5 13 -3 13 11 1 18 -14 47 -9 47 9 0 5 -11 10 -24 10 -13 0 -29 7 -36 15 -18 22 3 43 43 42 l32 -1 -5 -45z m56 -32 c20 -17 32 -2 37 46 3 33 4 31 3 -10 -1 -49 -1 -50 -33 -50 l-33 -1 2 51 c1 42 2 44 5 13 2 -20 11 -42 19 -49z m143 11 c-1 -36 -4 -55 -6 -42 -2 12 -9 20 -14 17 -5 -4 -18 -3 -29 0 -15 5 -20 15 -20 39 0 38 15 56 47 54 22 -2 23 -6 22 -68z m651 -430 l110 -164 -37 -15 c-33 -13 -38 -13 -47 3 -6 9 -39 61 -74 114 l-63 97 5 -65 c4 -36 9 -97 13 -135 l6 -71 -43 -17 c-24 -9 -44 -16 -45 -14 -1 1 -36 51 -78 111 -44 62 -77 101 -77 90 0 -10 7 -64 15 -119 20 -135 20 -132 -15 -140 -44 -10 -45 -9 -50 40 -3 25 -8 45 -12 45 -5 0 -53 0 -108 0 l-100 0 0 -40 0 -39 108 -3 107 -3 3 -32 3 -33 -150 0 -151 0 0 195 0 194 132 3 132 3 1 29 c0 24 6 31 37 42 43 15 31 27 148 -141 l62 -90 -6 85 c-4 47 -9 115 -13 151 l-6 65 34 11 c19 6 37 10 42 9 4 0 56 -75 117 -166z m-1680 127 c0 -22 -39 -129 -56 -155 -19 -28 -19 -28 29 -35 l37 -6 0 65 0 64 35 0 35 0 0 -125 c0 -69 4 -125 9 -125 5 0 18 39 30 88 44 177 37 162 80 162 l39 0 33 -132 34 -133 3 133 3 132 39 0 40 0 0 -195 0 -195 -59 0 c-68 0 -61 -10 -101 150 -32 128 -27 132 -80 -67 l-22 -83 -59 0 -59 0 0 40 c0 36 -2 40 -17 31 -17 -8 -207 -61 -222 -61 -4 0 -17 43 -30 95 -22 87 -41 115 -41 61 0 -29 -36 -82 -73 -110 -40 -30 -178 -30 -222 -1 -32 22 -185 58 -198 46 -4 -4 -8 -25 -10 -46 l-2 -39 65 -13 c106 -21 110 -23 110 -41 -1 -44 -11 -46 -133 -22 -63 12 -120 26 -127 30 -10 6 -4 48 26 195 l38 187 34 -6 c19 -3 37 -7 39 -10 3 -2 -2 -39 -11 -81 -9 -43 -16 -78 -16 -80 0 -1 17 -5 38 -9 20 -3 46 -8 57 -12 19 -5 20 -1 17 51 -5 81 5 120 41 162 39 44 82 63 144 63 49 0 124 -28 138 -50 5 -9 9 -9 14 -1 9 14 69 32 75 23 2 -4 12 -40 22 -79 10 -41 24 -73 31 -73 29 0 65 49 92 125 23 63 33 81 52 86 39 11 59 10 59 -4z m680 -70 c0 -1 34 -96 75 -211 41 -115 75 -211 75 -213 0 -2 -21 -3 -47 -1 l-46 3 -52 155 -51 154 -31 -84 c-17 -47 -41 -118 -54 -157 l-23 -73 -48 0 c-26 0 -48 1 -48 3 0 1 34 96 75 211 41 115 75 210 75 212 0 2 23 4 50 4 28 0 50 -1 50 -3z m270 -192 l0 -195 -40 0 -40 0 0 195 0 195 40 0 40 0 0 -195z"/>
 <path d="M762 1068 c-21 -21 -7 -68 20 -68 17 0 29 40 18 60 -12 23 -21 25 -38 8z"/>
 <path d="M1000 995 c0 -20 5 -25 24 -25 31 0 50 22 34 38 -7 7 -22 12 -35 12 -18 0 -23 -6 -23 -25z"/>
 <path d="M1117 1074 c-13 -13 -7 -22 18 -27 20 -3 25 -1 23 12 -3 17 -29 26 -41 15z"/>
 <path d="M1610 1021 c0 -47 2 -51 24 -51 32 0 48 22 44 62 -3 29 -7 33 -35 36 l-33 3 0 -50z"/>
 <path d="M1945 1069 c-8 -13 -6 -15 23 -23 24 -8 29 3 10 22 -15 15 -25 15 -33 1z"/>
 <path d="M2152 1068 c-16 -16 -15 -43 1 -56 20 -17 39 2 35 33 -3 32 -18 41 -36 23z"/>
 <path d="M2257 523 c-4 -3 -7 -28 -7 -54 l0 -48 104 -3 103 -3 -4 45 c-7 72 -4 70 -101 70 -49 0 -92 -3 -95 -7z"/>
 <path d="M615 590 c-36 -38 -47 -128 -21 -178 33 -64 118 -78 165 -28 49 52 45 176 -6 216 -40 32 -102 27 -138 -10z"/>
 <path d="M1030 463 c-30 -8 -56 -16 -57 -17 -1 -1 4 -22 11 -46 15 -51 22 -52 106 -21 36 13 46 22 48 43 2 18 -4 31 -20 42 -12 9 -25 16 -28 15 -3 0 -30 -8 -60 -16z"/>
 </g>
<g id="layer107" fill="#913b23" stroke="none">
 <path d="M0 680 l0 -680 1605 0 1605 0 0 680 0 680 -1605 0 -1605 0 0 -680z m887 385 c27 -71 29 -97 3 -40 l-19 40 -10 -28 c-6 -16 -11 -33 -11 -38 0 -5 -5 -9 -11 -9 -7 0 -8 7 -4 18 22 51 30 95 18 99 -7 3 -13 9 -13 15 0 27 27 -5 47 -57z m1370 53 c18 -23 53 -128 43 -128 -6 0 -10 4 -10 9 0 5 -5 22 -11 38 l-11 28 -18 -40 c-23 -51 -26 -29 -3 26 15 39 15 43 0 54 -10 7 -17 15 -17 19 0 10 17 7 27 -6z m-1445 -53 c16 -35 -3 -75 -36 -75 -15 0 -26 -7 -29 -17 -3 -10 -5 11 -6 47 l-1 66 30 2 c24 2 33 -3 42 -23z m188 -4 c0 -27 3 -30 38 -33 34 -3 37 -6 37 -33 0 -29 -2 -30 -47 -33 l-48 -3 0 65 c0 37 4 66 10 66 6 0 10 -13 10 -29z m178 -21 c-3 -40 -6 -45 -29 -48 -14 -2 -31 4 -39 12 -14 18 0 22 17 5 6 -6 16 -8 22 -5 19 12 12 23 -19 30 -20 4 -30 11 -30 24 0 27 9 32 47 29 34 -2 34 -2 31 -47z m62 40 c0 -5 -4 -10 -10 -10 -14 0 -12 -54 2 -68 9 -9 9 -12 0 -12 -7 0 -12 -8 -13 -17 0 -15 -2 -15 -8 2 -8 18 -5 71 5 103 4 14 24 16 24 2z m46 -70 c8 0 14 -4 14 -10 0 -5 -9 -10 -20 -10 -18 0 -20 6 -18 53 1 50 2 50 5 10 3 -29 9 -43 19 -43z m41 3 c-2 -16 -4 -3 -4 27 0 30 2 43 4 28 2 -16 2 -40 0 -55z m101 53 c4 -18 3 -18 -12 -3 -23 22 -46 11 -46 -23 0 -32 16 -42 44 -28 14 8 17 7 14 -4 -3 -7 -18 -13 -34 -13 -27 0 -29 3 -32 39 -2 24 2 42 10 48 21 13 52 5 56 -16z m38 -16 c4 -10 11 -6 29 15 28 34 33 27 9 -11 -16 -23 -15 -26 1 -44 10 -11 13 -20 8 -20 -6 0 -16 7 -23 15 -19 23 -28 18 -33 -17 -2 -18 -4 -1 -5 37 0 39 2 63 5 55 2 -8 7 -22 9 -30z m214 20 c22 -22 26 -60 10 -91 -8 -14 -21 -19 -55 -19 l-45 0 0 65 0 65 35 0 c22 0 43 -8 55 -20z m57 3 c-4 -3 -7 0 -7 7 0 7 3 10 7 7 3 -4 3 -10 0 -14z m173 7 c0 -5 -16 -10 -35 -10 l-34 0 -4 -57 -3 -58 -2 68 -2 67 40 0 c22 0 40 -4 40 -10z m90 -39 c-5 -43 -7 -46 -34 -46 -17 0 -31 6 -34 15 -5 13 -3 13 11 1 18 -14 47 -9 47 9 0 5 -11 10 -24 10 -13 0 -29 7 -36 15 -18 22 3 43 43 42 l32 -1 -5 -45z m56 -32 c20 -17 32 -2 37 46 3 33 4 31 3 -10 -1 -49 -1 -50 -33 -50 l-33 -1 2 51 c1 42 2 44 5 13 2 -20 11 -42 19 -49z m143 11 c-1 -36 -4 -55 -6 -42 -2 12 -9 20 -14 17 -5 -4 -18 -3 -29 0 -15 5 -20 15 -20 39 0 38 15 56 47 54 22 -2 23 -6 22 -68z m651 -430 l110 -164 -37 -15 c-33 -13 -38 -13 -47 3 -6 9 -39 61 -74 114 l-63 97 5 -65 c4 -36 9 -97 13 -135 l6 -71 -43 -17 c-24 -9 -44 -16 -45 -14 -1 1 -36 51 -78 111 -44 62 -77 101 -77 90 0 -10 7 -64 15 -119 20 -135 20 -132 -15 -140 -44 -10 -45 -9 -50 40 -3 25 -8 45 -12 45 -5 0 -53 0 -108 0 l-100 0 0 -40 0 -39 108 -3 107 -3 3 -32 3 -33 -150 0 -151 0 0 195 0 194 132 3 132 3 1 29 c0 24 6 31 37 42 43 15 31 27 148 -141 l62 -90 -6 85 c-4 47 -9 115 -13 151 l-6 65 34 11 c19 6 37 10 42 9 4 0 56 -75 117 -166z m-1680 127 c0 -22 -39 -129 -56 -155 -19 -28 -19 -28 29 -35 l37 -6 0 65 0 64 35 0 35 0 0 -125 c0 -69 4 -125 9 -125 5 0 18 39 30 88 44 177 37 162 80 162 l39 0 33 -132 34 -133 3 133 3 132 39 0 40 0 0 -195 0 -195 -59 0 c-68 0 -61 -10 -101 150 -32 128 -27 132 -80 -67 l-22 -83 -59 0 -59 0 0 40 c0 36 -2 40 -17 31 -17 -8 -207 -61 -222 -61 -4 0 -17 43 -30 95 -22 87 -41 115 -41 61 0 -29 -36 -82 -73 -110 -40 -30 -178 -30 -222 -1 -32 22 -185 58 -198 46 -4 -4 -8 -25 -10 -46 l-2 -39 65 -13 c106 -21 110 -23 110 -41 -1 -44 -11 -46 -133 -22 -63 12 -120 26 -127 30 -10 6 -4 48 26 195 l38 187 34 -6 c19 -3 37 -7 39 -10 3 -2 -2 -39 -11 -81 -9 -43 -16 -78 -16 -80 0 -1 17 -5 38 -9 20 -3 46 -8 57 -12 19 -5 20 -1 17 51 -5 81 5 120 41 162 39 44 82 63 144 63 49 0 124 -28 138 -50 5 -9 9 -9 14 -1 9 14 69 32 75 23 2 -4 12 -40 22 -79 10 -41 24 -73 31 -73 29 0 65 49 92 125 23 63 33 81 52 86 39 11 59 10 59 -4z m680 -70 c0 -1 34 -96 75 -211 41 -115 75 -211 75 -213 0 -2 -21 -3 -47 -1 l-46 3 -52 155 -51 154 -31 -84 c-17 -47 -41 -118 -54 -157 l-23 -73 -48 0 c-26 0 -48 1 -48 3 0 1 34 96 75 211 41 115 75 210 75 212 0 2 23 4 50 4 28 0 50 -1 50 -3z m270 -192 l0 -195 -40 0 -40 0 0 195 0 195 40 0 40 0 0 -195z"/>
 <path d="M753 1054 c-7 -18 6 -45 25 -52 15 -5 33 33 26 52 -8 21 -43 21 -51 0z"/>
 <path d="M1000 995 c0 -20 5 -25 24 -25 31 0 50 22 34 38 -7 7 -22 12 -35 12 -18 0 -23 -6 -23 -25z"/>
 <path d="M1117 1073 c-13 -12 -7 -21 18 -25 28 -6 36 16 9 26 -19 7 -19 7 -27 -1z"/>
 <path d="M1610 1021 c0 -47 2 -51 24 -51 32 0 48 22 44 62 -3 29 -7 33 -35 36 l-33 3 0 -50z"/>
 <path d="M1945 1069 c-8 -13 -6 -15 23 -23 24 -8 29 3 10 22 -15 15 -25 15 -33 1z"/>
 <path d="M2147 1063 c-11 -10 -8 -38 4 -50 18 -18 39 -3 39 28 0 21 -5 29 -18 29 -10 0 -22 -3 -25 -7z"/>
 <path d="M2257 523 c-4 -3 -7 -28 -7 -54 l0 -48 104 -3 103 -3 -4 45 c-7 72 -4 70 -101 70 -49 0 -92 -3 -95 -7z"/>
 <path d="M615 590 c-36 -38 -47 -128 -21 -178 33 -64 118 -78 165 -28 49 52 45 176 -6 216 -40 32 -102 27 -138 -10z"/>
 <path d="M1030 463 c-30 -8 -56 -16 -57 -17 -1 -1 4 -22 11 -46 15 -51 22 -52 106 -21 36 13 46 22 48 43 2 18 -4 31 -20 42 -12 9 -25 16 -28 15 -3 0 -30 -8 -60 -16z"/>
 </g>
<g id="layer108" fill="#0a4da7" stroke="none">
 <path d="M0 680 l0 -680 1605 0 1605 0 0 680 0 680 -1605 0 -1605 0 0 -680z m887 385 c27 -71 29 -97 3 -40 l-19 40 -10 -28 c-6 -16 -11 -33 -11 -38 0 -5 -5 -9 -11 -9 -7 0 -8 7 -4 18 22 51 30 95 18 99 -7 3 -13 9 -13 15 0 27 27 -5 47 -57z m1370 53 c18 -23 53 -128 43 -128 -6 0 -10 4 -10 9 0 5 -5 22 -11 38 l-11 28 -18 -40 c-23 -51 -26 -29 -3 26 15 39 15 43 0 54 -10 7 -17 15 -17 19 0 10 17 7 27 -6z m-1445 -53 c16 -35 -3 -75 -36 -75 -15 0 -26 -7 -29 -17 -3 -10 -5 11 -6 47 l-1 66 30 2 c24 2 33 -3 42 -23z m188 -4 c0 -27 3 -30 38 -33 34 -3 37 -6 37 -33 0 -29 -2 -30 -47 -33 l-48 -3 0 65 c0 37 4 66 10 66 6 0 10 -13 10 -29z m178 -21 c-3 -40 -6 -45 -29 -48 -14 -2 -31 4 -39 12 -14 18 0 22 17 5 6 -6 16 -8 22 -5 19 12 12 23 -19 30 -20 4 -30 11 -30 24 0 27 9 32 47 29 34 -2 34 -2 31 -47z m62 40 c0 -5 -4 -10 -10 -10 -14 0 -12 -54 2 -68 9 -9 9 -12 0 -12 -7 0 -12 -8 -13 -17 0 -15 -2 -15 -8 2 -8 18 -5 71 5 103 4 14 24 16 24 2z m46 -70 c8 0 14 -4 14 -10 0 -5 -9 -10 -20 -10 -18 0 -20 6 -18 53 1 50 2 50 5 10 3 -29 9 -43 19 -43z m41 3 c-2 -16 -4 -3 -4 27 0 30 2 43 4 28 2 -16 2 -40 0 -55z m101 53 c4 -18 3 -18 -12 -3 -23 22 -46 11 -46 -23 0 -32 16 -42 44 -28 14 8 17 7 14 -4 -3 -7 -17 -14 -31 -16 -34 -4 -52 33 -37 74 8 20 16 25 37 22 18 -2 29 -10 31 -22z m38 -16 c4 -10 11 -6 29 15 28 34 33 27 9 -11 -16 -23 -15 -26 1 -44 10 -11 13 -20 8 -20 -6 0 -16 7 -23 15 -19 23 -28 18 -33 -17 -2 -18 -4 -1 -5 37 0 39 2 63 5 55 2 -8 7 -22 9 -30z m214 20 c22 -22 26 -60 10 -91 -8 -14 -21 -19 -55 -19 l-45 0 0 65 0 65 35 0 c22 0 43 -8 55 -20z m57 3 c-4 -3 -7 0 -7 7 0 7 3 10 7 7 3 -4 3 -10 0 -14z m173 7 c0 -5 -16 -10 -35 -10 l-34 0 -4 -57 -3 -58 -2 68 -2 67 40 0 c22 0 40 -4 40 -10z m90 -39 c-5 -43 -7 -46 -34 -46 -17 0 -31 6 -34 15 -4 12 -3 13 10 2 16 -13 48 -7 48 9 0 5 -11 9 -24 9 -13 0 -29 7 -36 15 -18 22 3 43 43 42 l32 -1 -5 -45z m56 -32 c20 -17 32 -2 37 46 3 33 4 31 3 -10 -1 -49 -1 -50 -33 -50 l-33 -1 2 51 c1 42 2 44 5 13 2 -20 11 -42 19 -49z m143 11 c-1 -36 -4 -55 -6 -42 -2 12 -9 20 -14 17 -5 -4 -18 -3 -29 0 -15 5 -20 15 -20 39 0 38 15 56 47 54 22 -2 23 -6 22 -68z m651 -430 l110 -164 -37 -15 c-33 -13 -38 -13 -47 3 -6 9 -39 61 -74 114 l-63 97 5 -65 c4 -36 9 -97 13 -135 l6 -71 -43 -17 c-24 -9 -44 -16 -45 -14 -1 1 -36 51 -78 111 -44 62 -77 101 -77 90 0 -10 7 -64 15 -119 20 -135 20 -132 -15 -140 -44 -10 -45 -9 -50 40 -3 25 -8 45 -12 45 -5 0 -53 0 -108 0 l-100 0 0 -40 0 -39 108 -3 107 -3 3 -32 3 -33 -150 0 -151 0 0 195 0 194 132 3 132 3 1 29 c0 24 6 31 37 42 43 15 31 27 148 -141 l62 -90 -6 85 c-4 47 -9 115 -13 151 l-6 65 34 11 c19 6 37 10 42 9 4 0 56 -75 117 -166z m-1680 127 c0 -22 -39 -129 -56 -155 -19 -28 -19 -28 29 -35 l37 -6 0 65 0 64 35 0 35 0 0 -125 c0 -69 4 -125 9 -125 5 0 18 39 30 88 44 177 37 162 80 162 l39 0 33 -132 34 -133 3 133 3 132 39 0 40 0 0 -195 0 -195 -59 0 c-68 0 -61 -10 -101 150 -32 128 -27 132 -80 -67 l-22 -83 -59 0 -59 0 0 40 c0 36 -2 40 -17 31 -17 -8 -207 -61 -222 -61 -4 0 -17 43 -30 95 -22 87 -41 115 -41 61 0 -29 -36 -82 -73 -110 -40 -30 -178 -30 -222 -1 -32 22 -185 58 -198 46 -4 -4 -8 -25 -10 -46 l-2 -39 65 -13 c106 -21 110 -23 110 -41 -1 -44 -11 -46 -133 -22 -63 12 -120 26 -127 30 -10 6 -4 48 26 195 l38 187 34 -6 c19 -3 37 -7 39 -10 3 -2 -2 -39 -11 -81 -9 -43 -16 -78 -16 -80 0 -1 17 -5 38 -9 20 -3 46 -8 57 -12 19 -5 20 -1 17 51 -5 81 5 120 41 162 39 44 82 63 144 63 49 0 124 -28 138 -50 5 -9 9 -9 14 -1 9 14 69 32 75 23 2 -4 12 -40 22 -79 10 -41 24 -73 31 -73 29 0 65 49 92 125 23 63 33 81 52 86 39 11 59 10 59 -4z m680 -70 c0 -1 34 -96 75 -211 41 -115 75 -211 75 -213 0 -2 -21 -3 -47 -1 l-46 3 -52 155 -51 154 -31 -84 c-17 -47 -41 -118 -54 -157 l-23 -73 -48 0 c-26 0 -48 1 -48 3 0 1 34 96 75 211 41 115 75 210 75 212 0 2 23 4 50 4 28 0 50 -1 50 -3z m270 -192 l0 -195 -40 0 -40 0 0 195 0 195 40 0 40 0 0 -195z"/>
 <path d="M754 1055 c-9 -23 3 -45 25 -45 21 0 33 22 25 45 -4 8 -15 15 -25 15 -11 0 -22 -7 -25 -15z"/>
 <path d="M1000 995 c0 -20 5 -25 24 -25 31 0 50 22 34 38 -7 7 -22 12 -35 12 -18 0 -23 -6 -23 -25z"/>
 <path d="M1117 1073 c-13 -12 -7 -21 18 -25 28 -6 36 16 9 26 -19 7 -19 7 -27 -1z"/>
 <path d="M1610 1020 c0 -46 2 -50 23 -50 32 0 47 18 47 56 0 32 -13 44 -51 44 -16 0 -19 -7 -19 -50z"/>
 <path d="M1945 1069 c-8 -13 -6 -15 23 -23 24 -8 29 3 10 22 -15 15 -25 15 -33 1z"/>
 <path d="M2147 1063 c-11 -10 -8 -38 4 -50 18 -18 39 -3 39 28 0 21 -5 29 -18 29 -10 0 -22 -3 -25 -7z"/>
 <path d="M2257 523 c-4 -3 -7 -28 -7 -54 l0 -48 104 -3 103 -3 -4 45 c-7 72 -4 70 -101 70 -49 0 -92 -3 -95 -7z"/>
 <path d="M615 590 c-36 -38 -47 -128 -21 -178 33 -64 118 -78 165 -28 49 52 45 176 -6 216 -40 32 -102 27 -138 -10z"/>
 <path d="M1030 463 c-30 -8 -56 -16 -57 -17 -1 -1 4 -22 11 -46 15 -51 22 -52 106 -21 36 13 46 22 48 43 2 18 -4 31 -20 42 -12 9 -25 16 -28 15 -3 0 -30 -8 -60 -16z"/>
 </g>
<g id="layer109" fill="#a2540b" stroke="none">
 <path d="M0 680 l0 -680 1605 0 1605 0 0 680 0 680 -1605 0 -1605 0 0 -680z m880 404 c28 -65 36 -112 11 -59 l-20 40 -10 -28 c-6 -16 -11 -33 -11 -38 0 -5 -5 -9 -11 -9 -7 0 -8 7 -4 18 22 51 30 95 18 99 -16 6 -17 23 -3 23 6 0 20 -21 30 -46z m1378 34 c8 -10 52 -116 52 -125 0 -2 -4 -3 -9 -3 -5 0 -12 13 -16 30 -9 41 -22 46 -30 10 -4 -16 -11 -32 -16 -35 -13 -9 -11 10 8 56 15 39 15 43 0 54 -10 7 -17 15 -17 19 0 10 17 7 28 -6z m-1452 -39 c17 -14 18 -61 2 -77 -7 -7 -22 -12 -34 -12 -13 0 -24 -7 -27 -17 -3 -10 -5 11 -6 47 -1 64 0 66 25 68 15 1 33 -3 40 -9z m194 -18 c0 -27 3 -30 38 -33 34 -3 37 -6 37 -33 0 -29 -2 -30 -47 -33 l-48 -3 0 65 c0 37 4 66 10 66 6 0 10 -13 10 -29z m178 -21 c-3 -40 -6 -45 -29 -48 -14 -2 -31 4 -39 12 -14 18 0 22 17 5 6 -6 16 -8 22 -5 19 12 12 23 -19 30 -20 4 -30 11 -30 24 0 27 9 32 47 29 34 -2 34 -2 31 -47z m62 40 c0 -5 -4 -10 -10 -10 -14 0 -12 -54 2 -68 9 -9 9 -12 0 -12 -7 0 -12 -8 -13 -17 0 -15 -2 -15 -8 2 -8 18 -5 71 5 103 4 14 24 16 24 2z m53 -72 l22 -18 -27 0 c-27 0 -28 1 -26 53 1 39 2 43 5 17 3 -20 13 -42 26 -52z m34 5 c-2 -16 -4 -3 -4 27 0 30 2 43 4 28 2 -16 2 -40 0 -55z m101 53 c4 -19 3 -19 -13 -2 -13 13 -20 14 -31 5 -31 -26 -6 -76 29 -58 15 9 18 8 15 -3 -3 -7 -17 -14 -31 -16 -34 -4 -52 33 -37 74 8 20 16 25 37 22 18 -2 29 -10 31 -22z m38 -16 c4 -10 11 -6 29 15 27 33 34 22 9 -13 -15 -21 -15 -25 2 -43 9 -10 12 -19 7 -19 -6 0 -16 7 -23 15 -19 23 -28 18 -33 -17 -2 -18 -4 -1 -5 37 0 39 2 63 5 55 2 -8 7 -22 9 -30z m214 20 c22 -22 26 -60 10 -91 -8 -14 -21 -19 -55 -19 l-45 0 0 65 0 65 35 0 c22 0 43 -8 55 -20z m57 3 c-4 -3 -7 0 -7 7 0 7 3 10 7 7 3 -4 3 -10 0 -14z m173 7 c0 -5 -16 -10 -35 -10 l-34 0 -4 -57 -3 -58 -2 68 -2 67 40 0 c22 0 40 -4 40 -10z m90 -39 c-5 -43 -7 -46 -34 -46 -17 0 -31 6 -34 15 -4 12 -3 13 10 2 16 -13 48 -7 48 9 0 5 -11 9 -24 9 -13 0 -29 7 -36 15 -18 22 3 43 43 42 l32 -1 -5 -45z m52 7 c2 -30 8 -43 18 -43 10 0 16 13 18 43 4 52 22 56 22 5 0 -51 -10 -63 -48 -60 -31 2 -32 3 -32 50 0 58 18 63 22 5z m158 -25 c0 -35 -4 -63 -10 -63 -5 0 -10 9 -10 21 0 11 -5 17 -10 14 -6 -3 -19 -3 -30 0 -15 5 -20 15 -20 39 0 40 14 55 51 54 29 -1 29 -1 29 -65z m640 -433 l110 -164 -37 -15 c-33 -13 -38 -13 -47 3 -6 9 -39 61 -74 114 l-63 97 5 -65 c4 -36 9 -97 13 -135 l6 -71 -43 -17 c-24 -9 -44 -16 -45 -14 -1 1 -36 51 -78 111 -44 62 -77 101 -77 90 0 -10 7 -64 15 -119 20 -135 20 -132 -15 -140 -44 -10 -45 -9 -50 40 -3 25 -8 45 -12 45 -5 0 -53 0 -108 0 l-100 0 0 -40 0 -39 108 -3 107 -3 3 -32 3 -33 -150 0 -151 0 0 195 0 194 132 3 132 3 1 29 c0 24 6 31 37 42 43 15 31 27 148 -141 l62 -90 -6 85 c-4 47 -9 115 -13 151 l-6 65 34 11 c19 6 37 10 42 9 4 0 56 -75 117 -166z m-1680 127 c0 -22 -39 -129 -56 -155 -19 -28 -19 -28 29 -35 l37 -6 0 65 0 64 35 0 35 0 0 -125 c0 -69 4 -125 9 -125 5 0 18 39 30 88 44 177 37 162 80 162 l39 0 33 -132 34 -133 3 133 3 132 39 0 40 0 0 -195 0 -195 -59 0 c-68 0 -61 -10 -101 150 -32 128 -27 132 -80 -67 l-22 -83 -59 0 -59 0 0 40 c0 36 -2 40 -17 31 -17 -8 -207 -61 -222 -61 -4 0 -17 43 -30 95 -22 87 -41 115 -41 61 0 -29 -36 -82 -73 -110 -40 -30 -178 -30 -222 -1 -32 22 -185 58 -198 46 -4 -4 -8 -25 -10 -46 l-2 -39 65 -13 c106 -21 110 -23 110 -41 -1 -44 -11 -46 -133 -22 -63 12 -120 26 -127 30 -10 6 -4 48 26 195 l38 187 34 -6 c19 -3 37 -7 39 -10 3 -2 -2 -39 -11 -81 -9 -43 -16 -78 -16 -80 0 -1 17 -5 38 -9 20 -3 46 -8 57 -12 19 -5 20 -1 17 51 -5 81 5 120 41 162 39 44 82 63 144 63 49 0 124 -28 138 -50 5 -9 9 -9 14 -1 9 14 69 32 75 23 2 -4 12 -40 22 -79 10 -41 24 -73 31 -73 29 0 65 49 92 125 23 63 33 81 52 86 39 11 59 10 59 -4z m680 -70 c0 -1 34 -96 75 -211 41 -115 75 -211 75 -213 0 -2 -21 -3 -47 -1 l-46 3 -52 155 -51 154 -31 -84 c-17 -47 -41 -118 -54 -157 l-23 -73 -48 0 c-26 0 -48 1 -48 3 0 1 34 96 75 211 41 115 75 210 75 212 0 2 23 4 50 4 28 0 50 -1 50 -3z m270 -192 l0 -195 -40 0 -40 0 0 195 0 195 40 0 40 0 0 -195z"/>
 <path d="M754 1055 c-9 -23 3 -45 25 -45 21 0 33 22 25 45 -4 8 -15 15 -25 15 -11 0 -22 -7 -25 -15z"/>
 <path d="M1000 995 c0 -20 5 -25 24 -25 31 0 50 22 34 38 -7 7 -22 12 -35 12 -18 0 -23 -6 -23 -25z"/>
 <path d="M1115 1070 c-3 -6 4 -14 17 -19 26 -10 39 6 17 20 -18 11 -26 11 -34 -1z"/>
 <path d="M1610 1020 c0 -46 2 -50 23 -50 32 0 47 18 47 56 0 32 -13 44 -51 44 -16 0 -19 -7 -19 -50z"/>
 <path d="M1945 1069 c-8 -13 -6 -15 23 -23 24 -8 29 3 10 22 -15 15 -25 15 -33 1z"/>
 <path d="M2147 1063 c-11 -10 -8 -38 4 -50 18 -18 39 -3 39 28 0 21 -5 29 -18 29 -10 0 -22 -3 -25 -7z"/>
 <path d="M2257 523 c-4 -3 -7 -28 -7 -54 l0 -48 104 -3 103 -3 -4 45 c-7 72 -4 70 -101 70 -49 0 -92 -3 -95 -7z"/>
 <path d="M615 590 c-36 -38 -47 -128 -21 -178 33 -64 118 -78 165 -28 49 52 45 176 -6 216 -40 32 -102 27 -138 -10z"/>
 <path d="M1030 463 c-30 -8 -56 -16 -57 -17 -1 -1 4 -22 11 -46 15 -51 22 -52 106 -21 36 13 46 22 48 43 2 18 -4 31 -20 42 -12 9 -25 16 -28 15 -3 0 -30 -8 -60 -16z"/>
 </g>
<g id="layer110" fill="#70886f" stroke="none">
 <path d="M0 680 l0 -680 1605 0 1605 0 0 680 0 680 -1605 0 -1605 0 0 -680z m880 404 c27 -62 36 -99 22 -90 -6 3 -13 20 -17 36 -8 36 -21 31 -30 -10 -4 -17 -11 -30 -16 -30 -12 0 -12 3 8 51 13 33 14 46 5 60 -15 23 -15 29 -2 29 6 0 20 -21 30 -46z m1378 34 c8 -10 52 -116 52 -125 0 -2 -4 -3 -8 -3 -4 0 -14 15 -21 33 l-13 32 -14 -32 c-23 -55 -35 -37 -13 19 18 47 19 53 5 64 -9 6 -16 14 -16 18 0 10 17 7 28 -6z m-1452 -39 c17 -14 18 -61 2 -77 -7 -7 -22 -12 -34 -12 -13 0 -24 -7 -27 -17 -3 -10 -5 11 -6 47 -1 64 0 66 25 68 15 1 33 -3 40 -9z m194 -18 c0 -27 3 -30 38 -33 34 -3 37 -6 37 -33 0 -29 -2 -30 -47 -33 l-48 -3 0 65 c0 37 4 66 10 66 6 0 10 -13 10 -29z m178 -21 c-3 -40 -6 -45 -28 -48 -28 -2 -58 13 -47 24 3 4 13 1 21 -5 8 -7 20 -10 26 -6 18 11 11 22 -20 29 -20 4 -30 11 -30 24 0 27 9 32 47 29 34 -2 34 -2 31 -47z m62 40 c0 -5 -4 -10 -10 -10 -14 0 -12 -54 2 -68 9 -9 9 -12 0 -12 -7 0 -12 -8 -13 -17 0 -15 -1 -15 -8 2 -12 32 -1 115 15 115 8 0 14 -4 14 -10z m30 -24 c0 -23 7 -38 23 -49 22 -16 22 -16 -10 -16 -33 -1 -33 -1 -33 49 0 28 5 50 10 50 6 0 10 -15 10 -34z m57 -43 c-2 -16 -4 -3 -4 27 0 30 2 43 4 28 2 -16 2 -40 0 -55z m102 52 c3 -19 2 -19 -16 -3 -15 14 -22 15 -31 6 -26 -26 -2 -79 25 -56 15 12 28 5 18 -11 -12 -21 -55 -12 -67 14 -17 38 4 77 39 73 18 -2 29 -10 32 -23z m41 -15 c5 0 16 10 24 22 22 31 32 14 12 -18 -17 -24 -17 -27 0 -45 9 -10 12 -19 7 -19 -6 0 -16 7 -23 15 -19 23 -28 18 -33 -17 -2 -18 -4 -1 -4 37 0 39 2 60 4 48 2 -13 8 -23 13 -23z m210 20 c22 -22 26 -60 10 -91 -8 -14 -21 -19 -55 -19 l-45 0 0 65 0 65 35 0 c22 0 43 -8 55 -20z m57 3 c-4 -3 -7 0 -7 7 0 7 3 10 7 7 3 -4 3 -10 0 -14z m173 7 c0 -5 -16 -10 -35 -10 l-34 0 -4 -57 -3 -58 -2 68 -2 67 40 0 c22 0 40 -4 40 -10z m90 -40 c-4 -39 -8 -45 -31 -48 -14 -2 -31 4 -39 12 -14 18 0 22 16 6 12 -12 44 -3 44 11 0 5 -11 9 -24 9 -28 0 -51 24 -43 44 4 10 19 14 44 13 l38 -1 -5 -46z m50 11 c0 -24 5 -41 14 -44 20 -8 26 2 26 45 0 21 5 38 10 38 12 0 13 -70 2 -88 -5 -7 -23 -11 -40 -10 -31 2 -32 4 -32 50 0 26 5 48 10 48 6 0 10 -18 10 -39z m160 -28 c0 -35 -4 -63 -10 -63 -5 0 -10 8 -10 19 0 14 -6 17 -25 13 -20 -3 -27 1 -35 22 -17 46 4 75 52 74 28 -1 28 -2 28 -65z m640 -433 l110 -164 -37 -15 c-33 -13 -38 -13 -47 3 -6 9 -39 61 -74 114 l-63 97 5 -65 c4 -36 9 -97 13 -135 l6 -71 -43 -17 c-24 -9 -44 -16 -45 -14 -1 1 -36 51 -78 111 -44 62 -77 101 -77 90 0 -10 7 -64 15 -119 20 -135 20 -132 -15 -140 -44 -10 -45 -9 -50 40 -3 25 -8 45 -12 45 -5 0 -53 0 -108 0 l-100 0 0 -40 0 -39 108 -3 107 -3 3 -32 3 -33 -150 0 -151 0 0 195 0 194 132 3 132 3 1 29 c0 24 6 31 37 42 43 15 31 27 148 -141 l62 -90 -6 85 c-4 47 -9 115 -13 151 l-6 65 34 11 c19 6 37 10 42 9 4 0 56 -75 117 -166z m-1680 127 c0 -22 -39 -129 -56 -155 -19 -28 -19 -28 29 -35 l37 -6 0 65 0 64 35 0 35 0 0 -125 c0 -69 4 -125 9 -125 5 0 18 39 30 88 44 177 37 162 80 162 l39 0 33 -132 34 -133 3 133 3 132 39 0 40 0 0 -195 0 -195 -59 0 c-68 0 -61 -10 -101 150 -32 128 -27 132 -80 -67 l-22 -83 -59 0 -59 0 0 40 c0 36 -2 40 -17 31 -17 -8 -207 -61 -222 -61 -4 0 -17 43 -30 95 -22 87 -41 115 -41 61 0 -29 -36 -82 -73 -110 -40 -30 -178 -30 -222 -1 -32 22 -185 58 -198 46 -4 -4 -8 -25 -10 -46 l-2 -39 65 -13 c106 -21 110 -23 110 -41 -1 -44 -11 -46 -133 -22 -63 12 -120 26 -127 30 -10 6 -4 48 26 195 l38 187 34 -6 c19 -3 37 -7 39 -10 3 -2 -2 -39 -11 -81 -9 -43 -16 -78 -16 -80 0 -1 17 -5 38 -9 20 -3 46 -8 57 -12 19 -5 20 -1 17 51 -5 81 5 120 41 162 39 44 82 63 144 63 49 0 124 -28 138 -50 5 -9 9 -9 14 -1 9 14 69 32 75 23 2 -4 12 -40 22 -79 10 -41 24 -73 31 -73 29 0 65 49 92 125 23 63 33 81 52 86 39 11 59 10 59 -4z m680 -70 c0 -1 34 -96 75 -211 41 -115 75 -211 75 -213 0 -2 -21 -3 -47 -1 l-46 3 -52 155 -51 154 -31 -84 c-17 -47 -41 -118 -54 -157 l-23 -73 -48 0 c-26 0 -48 1 -48 3 0 1 34 96 75 211 41 115 75 210 75 212 0 2 23 4 50 4 28 0 50 -1 50 -3z m270 -192 l0 -195 -40 0 -40 0 0 195 0 195 40 0 40 0 0 -195z"/>
 <path d="M754 1055 c-9 -23 3 -45 26 -45 16 0 20 7 20 30 0 23 -4 30 -20 30 -11 0 -23 -7 -26 -15z"/>
 <path d="M1000 995 c0 -23 4 -26 28 -23 19 2 27 9 27 23 0 14 -8 21 -27 23 -24 3 -28 0 -28 -23z"/>
 <path d="M1115 1070 c-3 -6 4 -14 17 -19 26 -10 39 6 17 20 -18 11 -26 11 -34 -1z"/>
 <path d="M1610 1020 c0 -46 2 -50 23 -50 30 0 47 18 47 50 0 32 -17 50 -47 50 -21 0 -23 -4 -23 -50z"/>
 <path d="M1945 1069 c-8 -13 -6 -15 23 -23 24 -8 29 3 10 22 -15 15 -25 15 -33 1z"/>
 <path d="M2147 1064 c-12 -12 -8 -41 7 -53 17 -14 39 9 34 36 -3 18 -29 29 -41 17z"/>
 <path d="M2257 523 c-4 -3 -7 -28 -7 -54 l0 -48 104 -3 103 -3 -4 45 c-7 72 -4 70 -101 70 -49 0 -92 -3 -95 -7z"/>
 <path d="M615 590 c-36 -38 -47 -128 -21 -178 33 -64 118 -78 165 -28 49 52 45 176 -6 216 -40 32 -102 27 -138 -10z"/>
 <path d="M1030 463 c-30 -8 -56 -16 -57 -17 -1 -1 4 -22 11 -46 15 -51 22 -52 106 -21 36 13 46 22 48 43 2 18 -4 31 -20 42 -12 9 -25 16 -28 15 -3 0 -30 -8 -60 -16z"/>
 </g>
<g id="layer111" fill="#4d8db5" stroke="none">
 <path d="M0 680 l0 -680 1605 0 1605 0 0 680 0 680 -1605 0 -1605 0 0 -680z m880 404 c27 -62 36 -99 22 -90 -6 3 -13 20 -17 36 -8 36 -21 31 -30 -10 -4 -17 -11 -30 -16 -30 -12 0 -12 3 8 51 13 33 14 46 5 60 -15 23 -15 29 -2 29 6 0 20 -21 30 -46z m1378 34 c8 -10 52 -116 52 -125 0 -2 -4 -3 -8 -3 -4 0 -14 15 -21 33 l-13 32 -14 -32 c-23 -55 -35 -37 -13 19 18 47 19 53 5 64 -9 6 -16 14 -16 18 0 10 17 7 28 -6z m-1452 -39 c17 -14 18 -61 2 -77 -7 -7 -22 -12 -34 -12 -13 0 -24 -7 -27 -17 -3 -10 -5 11 -6 47 -1 64 0 66 25 68 15 1 33 -3 40 -9z m194 -18 c0 -27 3 -30 38 -33 34 -3 37 -6 37 -33 0 -29 -2 -30 -47 -33 l-48 -3 0 65 c0 37 4 66 10 66 6 0 10 -13 10 -29z m178 -21 c-3 -40 -6 -45 -28 -48 -28 -2 -58 13 -47 24 3 4 13 1 21 -5 8 -7 20 -10 26 -6 18 11 11 22 -20 29 -20 4 -30 11 -30 24 0 27 9 32 47 29 34 -2 34 -2 31 -47z m62 40 c0 -5 -4 -10 -10 -10 -14 0 -12 -54 2 -68 9 -9 9 -12 0 -12 -7 0 -12 -8 -13 -17 0 -15 -1 -15 -8 2 -12 32 -1 115 15 115 8 0 14 -4 14 -10z m30 -24 c0 -23 7 -38 23 -49 22 -16 22 -16 -10 -16 -33 -1 -33 -1 -33 49 0 28 5 50 10 50 6 0 10 -15 10 -34z m57 -43 c-2 -16 -4 -3 -4 27 0 30 2 43 4 28 2 -16 2 -40 0 -55z m102 52 c3 -19 2 -19 -16 -3 -15 14 -22 15 -31 6 -26 -26 -2 -79 25 -56 15 12 28 5 18 -11 -12 -21 -55 -12 -67 14 -17 38 4 77 39 73 18 -2 29 -10 32 -23z m41 -15 c5 0 16 10 24 22 22 31 32 14 12 -18 -17 -24 -17 -27 0 -45 9 -10 12 -19 7 -19 -6 0 -16 7 -23 15 -19 23 -28 18 -33 -17 -2 -18 -4 -1 -4 37 0 39 2 60 4 48 2 -13 8 -23 13 -23z m210 20 c22 -22 26 -60 10 -91 -8 -14 -21 -19 -55 -19 l-45 0 0 65 0 65 35 0 c22 0 43 -8 55 -20z m57 3 c-4 -3 -7 0 -7 7 0 7 3 10 7 7 3 -4 3 -10 0 -14z m173 7 c0 -5 -16 -10 -35 -10 l-34 0 -4 -57 -3 -58 -2 68 -2 67 40 0 c22 0 40 -4 40 -10z m90 -40 c-4 -39 -8 -45 -31 -48 -14 -2 -31 4 -39 12 -14 18 0 22 16 6 12 -12 44 -3 44 11 0 5 -11 9 -24 9 -28 0 -51 24 -43 44 4 10 19 14 44 13 l38 -1 -5 -46z m50 11 c0 -24 5 -41 14 -44 20 -8 26 2 26 45 0 21 5 38 10 38 12 0 13 -70 2 -88 -5 -7 -23 -11 -40 -10 -31 2 -32 4 -32 50 0 26 5 48 10 48 6 0 10 -18 10 -39z m160 -26 c0 -37 -4 -65 -10 -65 -5 0 -10 7 -10 15 0 9 -9 15 -25 15 -41 0 -56 68 -21 92 6 4 23 8 39 8 27 0 27 -1 27 -65z m640 -435 l110 -164 -37 -15 c-33 -13 -38 -13 -47 3 -6 9 -39 61 -74 114 l-63 97 5 -65 c4 -36 9 -97 13 -135 l6 -71 -43 -17 c-24 -9 -44 -16 -45 -14 -1 1 -36 51 -78 111 -44 62 -77 101 -77 90 0 -10 7 -64 15 -119 20 -135 20 -132 -15 -140 -44 -10 -45 -9 -50 40 -3 25 -8 45 -12 45 -5 0 -53 0 -108 0 l-100 0 0 -40 0 -39 108 -3 107 -3 3 -32 3 -33 -150 0 -151 0 0 195 0 194 132 3 132 3 1 29 c0 24 6 31 37 42 43 15 31 27 148 -141 l62 -90 -6 85 c-4 47 -9 115 -13 151 l-6 65 34 11 c19 6 37 10 42 9 4 0 56 -75 117 -166z m-1680 127 c0 -22 -39 -129 -56 -155 -19 -28 -19 -28 29 -35 l37 -6 0 65 0 64 35 0 35 0 0 -125 c0 -69 4 -125 9 -125 5 0 18 39 30 88 44 177 37 162 80 162 l39 0 33 -132 34 -133 3 133 3 132 39 0 40 0 0 -195 0 -195 -59 0 c-68 0 -61 -10 -101 150 -32 128 -27 132 -80 -67 l-22 -83 -59 0 -59 0 0 40 c0 36 -2 40 -17 31 -17 -8 -207 -61 -222 -61 -4 0 -17 43 -30 95 -22 87 -41 115 -41 61 0 -29 -36 -82 -73 -110 -40 -30 -178 -30 -222 -1 -32 22 -185 58 -198 46 -4 -4 -8 -25 -10 -46 l-2 -39 65 -13 c106 -21 110 -23 110 -41 -1 -44 -11 -46 -133 -22 -63 12 -120 26 -127 30 -10 6 -4 48 26 195 l38 187 34 -6 c19 -3 37 -7 39 -10 3 -2 -2 -39 -11 -81 -9 -43 -16 -78 -16 -80 0 -1 17 -5 38 -9 20 -3 46 -8 57 -12 19 -5 20 -1 17 51 -5 81 5 120 41 162 39 44 82 63 144 63 49 0 124 -28 138 -50 5 -9 9 -9 14 -1 9 14 69 32 75 23 2 -4 12 -40 22 -79 10 -41 24 -73 31 -73 29 0 65 49 92 125 23 63 33 81 52 86 39 11 59 10 59 -4z m680 -70 c0 -1 34 -96 75 -211 41 -115 75 -211 75 -213 0 -2 -21 -3 -47 -1 l-46 3 -52 155 -51 154 -31 -84 c-17 -47 -41 -118 -54 -157 l-23 -73 -48 0 c-26 0 -48 1 -48 3 0 1 34 96 75 211 41 115 75 210 75 212 0 2 23 4 50 4 28 0 50 -1 50 -3z m270 -192 l0 -195 -40 0 -40 0 0 195 0 195 40 0 40 0 0 -195z"/>
 <path d="M754 1055 c-9 -23 3 -45 26 -45 16 0 20 7 20 30 0 23 -4 30 -20 30 -11 0 -23 -7 -26 -15z"/>
 <path d="M1000 995 c0 -23 4 -26 28 -23 19 2 27 9 27 23 0 14 -8 21 -27 23 -24 3 -28 0 -28 -23z"/>
 <path d="M1115 1070 c-3 -6 4 -14 17 -19 26 -10 39 6 17 20 -18 11 -26 11 -34 -1z"/>
 <path d="M1610 1020 c0 -46 2 -50 23 -50 30 0 47 18 47 50 0 32 -17 50 -47 50 -21 0 -23 -4 -23 -50z"/>
 <path d="M1945 1069 c-8 -13 -6 -15 23 -23 24 -8 29 3 10 22 -15 15 -25 15 -33 1z"/>
 <path d="M2147 1064 c-12 -12 -8 -41 7 -53 17 -14 39 9 34 36 -3 18 -29 29 -41 17z"/>
 <path d="M2257 523 c-4 -3 -7 -28 -7 -54 l0 -48 104 -3 103 -3 -4 45 c-7 72 -4 70 -101 70 -49 0 -92 -3 -95 -7z"/>
 <path d="M615 590 c-36 -38 -47 -128 -21 -178 33 -64 118 -78 165 -28 49 52 45 176 -6 216 -40 32 -102 27 -138 -10z"/>
 <path d="M1030 463 c-30 -8 -56 -16 -57 -17 -1 -1 4 -22 11 -46 15 -51 22 -52 106 -21 36 13 46 22 48 43 2 18 -4 31 -20 42 -12 9 -25 16 -28 15 -3 0 -30 -8 -60 -16z"/>
 </g>
<g id="layer112" fill="#ae925d" stroke="none">
 <path d="M0 680 l0 -680 1605 0 1605 0 0 680 0 680 -1605 0 -1605 0 0 -680z m880 408 c22 -52 36 -106 24 -95 -5 5 -14 23 -20 40 l-11 32 -13 -37 c-8 -21 -18 -38 -22 -38 -11 0 -10 4 9 51 13 33 14 46 5 60 -15 23 -15 29 -1 29 5 0 19 -19 29 -42z m1396 -9 c28 -58 37 -89 27 -89 -5 0 -15 15 -22 33 l-13 32 -14 -32 c-23 -55 -35 -37 -13 19 18 47 19 53 5 64 -19 13 -21 27 -3 22 6 -2 22 -24 33 -49z m-1470 0 c17 -14 18 -61 2 -77 -7 -7 -22 -12 -34 -12 -13 0 -24 -7 -27 -17 -3 -10 -5 11 -6 47 -1 64 0 66 25 68 15 1 33 -3 40 -9z m194 -14 c0 -19 7 -26 28 -31 50 -11 53 -13 50 -41 -3 -26 -7 -28 -50 -31 l-48 -3 0 65 c0 37 4 66 10 66 6 0 10 -11 10 -25z m178 -25 c-3 -40 -6 -45 -28 -48 -28 -2 -58 13 -47 24 3 4 13 1 21 -5 8 -7 20 -10 26 -6 18 11 11 22 -20 29 -20 4 -30 11 -30 24 0 27 9 32 47 29 34 -2 34 -2 31 -47z m62 40 c0 -5 -4 -10 -10 -10 -14 0 -12 -54 2 -68 9 -9 9 -12 0 -12 -7 0 -12 -8 -13 -17 0 -15 -1 -15 -8 2 -12 32 -1 115 15 115 8 0 14 -4 14 -10z m30 -24 c0 -23 7 -38 23 -49 22 -16 22 -16 -10 -16 -33 -1 -33 -1 -33 49 0 28 5 50 10 50 6 0 10 -15 10 -34z m57 -43 c-2 -16 -4 -3 -4 27 0 30 2 43 4 28 2 -16 2 -40 0 -55z m102 52 c3 -19 2 -19 -16 -3 -15 14 -22 15 -31 6 -26 -26 -2 -79 25 -56 15 12 28 5 18 -11 -12 -21 -55 -12 -67 14 -17 38 4 77 39 73 18 -2 29 -10 32 -23z m42 -15 c5 0 14 9 21 20 7 11 19 20 26 20 9 0 7 -9 -8 -31 -21 -29 -21 -31 -5 -50 10 -10 13 -19 8 -19 -6 0 -16 7 -23 15 -19 23 -28 18 -33 -17 -2 -18 -4 -1 -4 37 0 39 2 60 4 48 2 -13 9 -23 14 -23z m207 24 c24 -17 30 -61 12 -95 -8 -14 -21 -19 -55 -19 l-45 0 0 65 0 65 33 0 c18 0 43 -7 55 -16z m59 -1 c-4 -3 -7 0 -7 7 0 7 3 10 7 7 3 -4 3 -10 0 -14z m173 7 c0 -5 -16 -10 -35 -10 l-34 0 -4 -57 -3 -58 -2 68 -2 67 40 0 c22 0 40 -4 40 -10z m95 -8 c-3 -7 -5 -29 -5 -48 0 -31 -3 -34 -29 -34 -16 0 -34 7 -41 15 -14 17 0 21 16 5 12 -12 44 -3 44 11 0 5 -11 9 -24 9 -28 0 -51 24 -43 44 4 10 19 14 47 13 30 -1 39 -5 35 -15z m45 -21 c0 -24 5 -41 14 -44 20 -8 26 2 26 45 0 21 5 38 10 38 11 0 14 -59 4 -84 -4 -10 -18 -16 -40 -16 l-34 0 0 50 c0 28 5 50 10 50 6 0 10 -18 10 -39z m160 -26 c0 -37 -4 -65 -10 -65 -5 0 -10 7 -10 15 0 9 -9 15 -25 15 -41 0 -56 68 -21 92 6 4 23 8 39 8 27 0 27 -1 27 -65z m640 -435 l110 -164 -37 -15 c-33 -13 -38 -13 -47 3 -6 9 -39 61 -74 114 l-63 97 5 -65 c4 -36 9 -97 13 -135 l6 -71 -43 -17 c-24 -9 -44 -16 -45 -14 -1 1 -36 51 -78 111 -44 62 -77 101 -77 90 0 -10 7 -64 15 -119 20 -135 20 -132 -15 -140 -44 -10 -45 -9 -50 40 -3 25 -8 45 -12 45 -5 0 -53 0 -108 0 l-100 0 0 -40 0 -39 108 -3 107 -3 3 -32 3 -33 -150 0 -151 0 0 195 0 194 132 3 132 3 1 29 c0 24 6 31 37 42 43 15 31 27 148 -141 l62 -90 -6 85 c-4 47 -9 115 -13 151 l-6 65 34 11 c19 6 37 10 42 9 4 0 56 -75 117 -166z m-1680 127 c0 -22 -39 -129 -56 -155 -19 -28 -19 -28 29 -35 l37 -6 0 65 0 64 35 0 35 0 0 -125 c0 -69 4 -125 9 -125 5 0 18 39 30 88 44 177 37 162 80 162 l39 0 33 -132 34 -133 3 133 3 132 39 0 40 0 0 -195 0 -195 -59 0 c-68 0 -61 -10 -101 150 -32 128 -27 132 -80 -67 l-22 -83 -59 0 -59 0 0 40 c0 36 -2 40 -17 31 -17 -8 -207 -61 -222 -61 -4 0 -17 43 -30 95 -22 87 -41 115 -41 61 0 -29 -36 -82 -73 -110 -40 -30 -178 -30 -222 -1 -32 22 -185 58 -198 46 -4 -4 -8 -25 -10 -46 l-2 -39 65 -13 c106 -21 110 -23 110 -41 -1 -44 -11 -46 -133 -22 -63 12 -120 26 -127 30 -10 6 -4 48 26 195 l38 187 34 -6 c19 -3 37 -7 39 -10 3 -2 -2 -39 -11 -81 -9 -43 -16 -78 -16 -80 0 -1 17 -5 38 -9 20 -3 46 -8 57 -12 19 -5 20 -1 17 51 -5 81 5 120 41 162 39 44 82 63 144 63 49 0 124 -28 138 -50 5 -9 9 -9 14 -1 9 14 69 32 75 23 2 -4 12 -40 22 -79 10 -41 24 -73 31 -73 29 0 65 49 92 125 23 63 33 81 52 86 39 11 59 10 59 -4z m680 -70 c0 -1 34 -96 75 -211 41 -115 75 -211 75 -213 0 -2 -21 -3 -47 -1 l-46 3 -52 155 -51 154 -31 -84 c-17 -47 -41 -118 -54 -157 l-23 -73 -48 0 c-26 0 -48 1 -48 3 0 1 34 96 75 211 41 115 75 210 75 212 0 2 23 4 50 4 28 0 50 -1 50 -3z m270 -192 l0 -195 -40 0 -40 0 0 195 0 195 40 0 40 0 0 -195z"/>
 <path d="M754 1055 c-9 -23 3 -45 26 -45 16 0 20 7 20 30 0 23 -4 30 -20 30 -11 0 -23 -7 -26 -15z"/>
 <path d="M1000 995 c0 -23 4 -26 28 -23 19 2 27 9 27 23 0 14 -8 21 -27 23 -24 3 -28 0 -28 -23z"/>
 <path d="M1120 1061 c0 -5 9 -11 20 -14 13 -3 20 0 20 9 0 8 -9 14 -20 14 -11 0 -20 -4 -20 -9z"/>
 <path d="M1610 1020 c0 -46 2 -50 23 -50 30 0 47 18 47 50 0 32 -17 50 -47 50 -21 0 -23 -4 -23 -50z"/>
 <path d="M1945 1069 c-8 -13 -6 -15 23 -23 24 -8 29 3 10 22 -15 15 -25 15 -33 1z"/>
 <path d="M2147 1064 c-12 -12 -8 -41 7 -53 17 -14 39 9 34 36 -3 18 -29 29 -41 17z"/>
 <path d="M2257 523 c-4 -3 -7 -28 -7 -54 l0 -48 104 -3 103 -3 -4 45 c-7 72 -4 70 -101 70 -49 0 -92 -3 -95 -7z"/>
 <path d="M615 590 c-36 -38 -47 -128 -21 -178 33 -64 118 -78 165 -28 49 52 45 176 -6 216 -40 32 -102 27 -138 -10z"/>
 <path d="M1030 463 c-30 -8 -56 -16 -57 -17 -1 -1 4 -22 11 -46 15 -51 22 -52 106 -21 36 13 46 22 48 43 2 18 -4 31 -20 42 -12 9 -25 16 -28 15 -3 0 -30 -8 -60 -16z"/>
 </g>
<g id="layer113" fill="#56a0d7" stroke="none">
 <path d="M0 680 l0 -680 1605 0 1605 0 0 680 0 680 -1605 0 -1605 0 0 -680z m888 386 c25 -63 24 -103 -1 -46 l-15 35 -13 -32 c-7 -18 -17 -33 -21 -33 -10 0 -11 -1 8 54 12 35 13 51 5 59 -15 15 -14 30 2 25 6 -3 22 -30 35 -62z m1388 13 c12 -24 25 -54 28 -66 11 -36 -11 -27 -24 10 l-12 32 -14 -32 c-23 -55 -35 -37 -13 19 18 47 19 53 5 64 -19 13 -21 27 -3 22 6 -2 22 -24 33 -49z m-1470 0 c17 -14 18 -61 2 -77 -7 -7 -22 -12 -34 -12 -13 0 -24 -7 -27 -17 -3 -10 -5 11 -6 47 -1 64 0 66 25 68 15 1 33 -3 40 -9z m194 -14 c0 -19 7 -26 28 -31 50 -11 53 -13 50 -41 -3 -26 -7 -28 -50 -31 l-48 -3 0 65 c0 37 4 66 10 66 6 0 10 -11 10 -25z m178 -22 c-3 -47 -4 -48 -37 -48 -19 0 -36 6 -38 12 -3 9 4 11 26 7 18 -4 31 -2 31 4 0 5 -13 12 -30 16 -20 4 -30 11 -30 24 0 26 9 32 47 32 l34 0 -3 -47z m62 37 c0 -5 -4 -10 -10 -10 -14 0 -12 -54 2 -68 9 -9 9 -12 0 -12 -7 0 -12 -8 -13 -17 0 -15 -1 -15 -8 2 -12 32 -1 115 15 115 8 0 14 -4 14 -10z m30 -24 c0 -23 7 -38 23 -49 22 -16 22 -16 -10 -16 -33 -1 -33 -1 -33 49 0 28 5 50 10 50 6 0 10 -15 10 -34z m57 -43 c-2 -16 -4 -3 -4 27 0 30 2 43 4 28 2 -16 2 -40 0 -55z m102 52 c3 -19 2 -19 -16 -3 -15 14 -22 15 -31 6 -26 -26 -2 -79 25 -56 15 12 28 5 18 -11 -12 -21 -55 -12 -67 14 -17 38 4 77 39 73 18 -2 29 -10 32 -23z m42 -15 c5 0 14 9 21 20 7 11 19 20 26 20 9 0 7 -9 -8 -31 -21 -29 -21 -31 -5 -50 10 -10 13 -19 8 -19 -6 0 -16 7 -23 15 -19 23 -28 18 -33 -17 -2 -18 -4 -1 -4 37 0 39 2 60 4 48 2 -13 9 -23 14 -23z m207 24 c24 -17 30 -61 12 -95 -8 -14 -21 -19 -55 -19 l-45 0 0 65 0 65 33 0 c18 0 43 -7 55 -16z m59 -1 c-4 -3 -7 0 -7 7 0 7 3 10 7 7 3 -4 3 -10 0 -14z m173 7 c0 -5 -16 -10 -35 -10 l-34 0 -4 -57 -3 -58 -2 68 -2 67 40 0 c22 0 40 -4 40 -10z m95 -7 c-3 -8 -5 -30 -5 -49 0 -31 -3 -34 -29 -34 -16 0 -34 7 -41 15 -14 17 0 21 16 5 12 -12 47 -2 38 11 -3 5 -13 9 -23 9 -24 0 -45 25 -37 45 4 10 18 14 46 13 31 -1 40 -5 35 -15z m45 -22 c0 -24 5 -41 14 -44 20 -8 26 2 26 45 0 21 5 38 10 38 11 0 14 -59 4 -84 -4 -10 -18 -16 -40 -16 l-34 0 0 50 c0 28 5 50 10 50 6 0 10 -18 10 -39z m160 -26 c0 -37 -4 -65 -10 -65 -5 0 -10 7 -10 15 0 9 -9 15 -25 15 -32 0 -49 38 -35 75 8 20 16 25 45 25 l35 0 0 -65z m640 -435 l110 -164 -37 -15 c-33 -13 -38 -13 -47 3 -6 9 -39 61 -74 114 l-63 97 5 -65 c4 -36 9 -97 13 -135 l6 -71 -43 -17 c-24 -9 -44 -16 -45 -14 -1 1 -36 51 -78 111 -44 62 -77 101 -77 90 0 -10 7 -64 15 -119 20 -135 20 -132 -15 -140 -44 -10 -45 -9 -50 40 -3 25 -8 45 -12 45 -5 0 -53 0 -108 0 l-100 0 0 -40 0 -39 108 -3 107 -3 3 -32 3 -33 -150 0 -151 0 0 195 0 194 132 3 132 3 1 29 c0 24 6 31 37 42 43 15 31 27 148 -141 l62 -90 -6 85 c-4 47 -9 115 -13 151 l-6 65 34 11 c19 6 37 10 42 9 4 0 56 -75 117 -166z m-1680 127 c0 -22 -39 -129 -56 -155 -19 -28 -19 -28 29 -35 l37 -6 0 65 0 64 35 0 35 0 0 -125 c0 -69 4 -125 9 -125 5 0 18 39 30 88 44 177 37 162 80 162 l39 0 33 -132 34 -133 3 133 3 132 39 0 40 0 0 -195 0 -195 -59 0 c-68 0 -61 -10 -101 150 -32 128 -27 132 -80 -67 l-22 -83 -59 0 -59 0 0 40 c0 36 -2 40 -17 31 -17 -8 -207 -61 -222 -61 -4 0 -17 43 -30 95 -22 87 -41 115 -41 61 0 -29 -36 -82 -73 -110 -40 -30 -178 -30 -222 -1 -32 22 -185 58 -198 46 -4 -4 -8 -25 -10 -46 l-2 -39 65 -13 c106 -21 110 -23 110 -41 -1 -44 -11 -46 -133 -22 -63 12 -120 26 -127 30 -10 6 -4 48 26 195 l38 187 34 -6 c19 -3 37 -7 39 -10 3 -2 -2 -39 -11 -81 -9 -43 -16 -78 -16 -80 0 -1 17 -5 38 -9 20 -3 46 -8 57 -12 19 -5 20 -1 17 51 -5 81 5 120 41 162 39 44 82 63 144 63 49 0 124 -28 138 -50 5 -9 9 -9 14 -1 9 14 69 32 75 23 2 -4 12 -40 22 -79 10 -41 24 -73 31 -73 29 0 65 49 92 125 23 63 33 81 52 86 39 11 59 10 59 -4z m680 -70 c0 -1 34 -96 75 -211 41 -115 75 -211 75 -213 0 -2 -21 -3 -47 -1 l-46 3 -52 155 -51 154 -31 -84 c-17 -47 -41 -118 -54 -157 l-23 -73 -48 0 c-26 0 -48 1 -48 3 0 1 34 96 75 211 41 115 75 210 75 212 0 2 23 4 50 4 28 0 50 -1 50 -3z m270 -192 l0 -195 -40 0 -40 0 0 195 0 195 40 0 40 0 0 -195z"/>
 <path d="M754 1056 c-9 -24 4 -48 23 -44 12 2 18 12 18 28 0 29 -32 41 -41 16z"/>
 <path d="M1000 995 c0 -23 4 -26 28 -23 19 2 27 9 27 23 0 14 -8 21 -27 23 -24 3 -28 0 -28 -23z"/>
 <path d="M1120 1061 c0 -5 9 -11 20 -14 13 -3 20 0 20 9 0 8 -9 14 -20 14 -11 0 -20 -4 -20 -9z"/>
 <path d="M1610 1020 c0 -39 4 -50 16 -50 31 0 54 20 54 48 0 34 -16 52 -47 52 -21 0 -23 -4 -23 -50z"/>
 <path d="M1940 1060 c0 -5 12 -10 26 -10 14 0 23 4 19 10 -3 6 -15 10 -26 10 -10 0 -19 -4 -19 -10z"/>
 <path d="M2147 1064 c-12 -12 -8 -41 7 -53 17 -14 39 9 34 36 -3 18 -29 29 -41 17z"/>
 <path d="M2257 523 c-4 -3 -7 -28 -7 -54 l0 -48 104 -3 103 -3 -4 45 c-7 72 -4 70 -101 70 -49 0 -92 -3 -95 -7z"/>
 <path d="M615 590 c-36 -38 -47 -128 -21 -178 33 -64 118 -78 165 -28 49 52 45 176 -6 216 -40 32 -102 27 -138 -10z"/>
 <path d="M1030 463 c-30 -8 -56 -16 -57 -17 -1 -1 4 -22 11 -46 15 -51 22 -52 106 -21 36 13 46 22 48 43 2 18 -4 31 -20 42 -12 9 -25 16 -28 15 -3 0 -30 -8 -60 -16z"/>
 </g>
<g id="layer114" fill="#d7a760" stroke="none">
 <path d="M0 680 l0 -680 1605 0 1605 0 0 680 0 680 -1605 0 -1605 0 0 -680z m867 438 c17 -23 52 -128 43 -128 -6 0 -16 15 -24 33 l-14 32 -12 -32 c-7 -18 -16 -33 -21 -33 -12 0 -12 -2 7 54 12 35 13 51 5 59 -6 6 -11 15 -11 19 0 12 16 10 27 -4z m1413 -38 c28 -71 32 -90 22 -90 -6 0 -15 15 -22 33 l-11 32 -14 -32 c-23 -55 -36 -37 -14 19 18 47 19 53 5 64 -21 15 -20 26 0 22 9 -2 24 -23 34 -48z m-1474 -1 c17 -14 18 -61 2 -77 -7 -7 -20 -12 -30 -12 -10 0 -18 -7 -18 -15 0 -8 -4 -15 -10 -15 -6 0 -10 28 -10 63 0 61 1 63 26 65 15 1 33 -3 40 -9z m194 -14 c0 -19 7 -26 28 -31 50 -11 53 -13 50 -41 -3 -26 -7 -28 -50 -31 l-48 -3 0 65 c0 37 4 66 10 66 6 0 10 -11 10 -25z m180 -22 c-5 -47 -6 -48 -39 -48 -19 0 -36 6 -38 12 -3 9 4 11 26 7 18 -4 31 -2 31 4 0 5 -13 12 -30 16 -20 4 -30 11 -30 24 0 27 9 32 50 32 l36 0 -6 -47z m54 -14 c-2 -57 -8 -78 -19 -68 -15 16 -8 129 8 129 9 0 12 -17 11 -61z m36 25 c0 -27 5 -37 20 -41 30 -8 24 -23 -10 -23 -29 0 -30 1 -30 50 0 28 5 50 10 50 6 0 10 -16 10 -36z m70 -14 c0 -27 -4 -50 -10 -50 -5 0 -10 23 -10 50 0 28 5 50 10 50 6 0 10 -22 10 -50z m90 35 c18 -22 4 -31 -18 -12 -21 19 -42 6 -42 -24 0 -22 26 -44 35 -29 3 5 13 10 22 10 13 0 13 -3 3 -15 -20 -24 -59 -19 -72 10 -24 53 36 103 72 60z m40 -7 l1 -23 18 23 c29 33 46 27 21 -9 -21 -29 -21 -31 -5 -50 22 -23 9 -25 -17 -2 -17 15 -18 14 -18 -15 0 -18 -4 -32 -10 -32 -6 0 -10 28 -10 65 0 37 4 65 10 65 6 0 10 -10 10 -22z m208 6 c16 -11 22 -25 22 -53 0 -48 -14 -61 -67 -61 l-43 0 0 65 0 65 33 0 c18 0 43 -7 55 -16z m72 6 c0 -5 -4 -10 -10 -10 -5 0 -10 5 -10 10 0 6 5 10 10 10 6 0 10 -4 10 -10z m160 0 c0 -5 -13 -10 -30 -10 -30 0 -30 -1 -30 -55 0 -30 -4 -55 -10 -55 -6 0 -10 28 -10 65 l0 65 40 0 c22 0 40 -4 40 -10z m100 -26 c0 -18 -3 -39 -6 -48 -8 -20 -57 -21 -74 -1 -10 12 -10 15 3 15 9 0 18 -4 22 -10 3 -5 12 -7 20 -4 19 8 9 24 -14 24 -24 0 -45 25 -37 45 4 10 18 14 46 13 38 -1 40 -3 40 -34z m40 -3 c0 -24 5 -41 14 -44 20 -8 26 2 26 45 0 21 5 38 11 38 6 0 9 -19 7 -47 -3 -48 -3 -48 -40 -51 l-38 -3 0 50 c0 28 5 51 10 51 6 0 10 -18 10 -39z m160 -26 c0 -37 -4 -65 -10 -65 -5 0 -10 7 -10 15 0 9 -9 15 -25 15 -32 0 -49 38 -35 75 8 20 16 25 45 25 l35 0 0 -65z m-873 -62 c-4 -3 -10 -3 -14 0 -3 4 0 7 7 7 7 0 10 -3 7 -7z m1513 -373 l110 -164 -37 -15 c-33 -13 -38 -13 -47 3 -6 9 -39 61 -74 114 l-63 97 5 -65 c4 -36 9 -97 13 -135 l6 -71 -43 -17 c-24 -9 -44 -16 -45 -14 -1 1 -36 51 -78 111 -44 62 -77 101 -77 90 0 -10 7 -64 15 -119 20 -135 20 -132 -15 -140 -44 -10 -45 -9 -50 40 -3 25 -8 45 -12 45 -5 0 -53 0 -108 0 l-100 0 0 -40 0 -39 108 -3 107 -3 3 -32 3 -33 -150 0 -151 0 0 195 0 194 132 3 132 3 1 29 c0 24 6 31 37 42 43 15 31 27 148 -141 l62 -90 -6 85 c-4 47 -9 115 -13 151 l-6 65 34 11 c19 6 37 10 42 9 4 0 56 -75 117 -166z m-1680 127 c0 -22 -39 -129 -56 -155 -19 -28 -19 -28 29 -35 l37 -6 0 65 0 64 35 0 35 0 0 -125 c0 -69 4 -125 9 -125 5 0 18 39 30 88 44 177 37 162 80 162 l39 0 33 -132 34 -133 3 133 3 132 39 0 40 0 0 -195 0 -195 -59 0 c-68 0 -61 -10 -101 150 -32 128 -27 132 -80 -67 l-22 -83 -59 0 -59 0 0 40 c0 36 -2 40 -17 31 -17 -8 -207 -61 -222 -61 -4 0 -17 43 -30 95 -22 87 -41 115 -41 61 0 -29 -36 -82 -73 -110 -40 -30 -178 -30 -222 -1 -32 22 -185 58 -198 46 -4 -4 -8 -25 -10 -46 l-2 -39 65 -13 c106 -21 110 -23 110 -41 -1 -44 -11 -46 -133 -22 -63 12 -120 26 -127 30 -10 6 -4 48 26 195 l38 187 34 -6 c19 -3 37 -7 39 -10 3 -2 -2 -39 -11 -81 -9 -43 -16 -78 -16 -80 0 -1 17 -5 38 -9 20 -3 46 -8 57 -12 19 -5 20 -1 17 51 -5 81 5 120 41 162 39 44 82 63 144 63 49 0 124 -28 138 -50 5 -9 9 -9 14 -1 9 14 69 32 75 23 2 -4 12 -40 22 -79 10 -41 24 -73 31 -73 29 0 65 49 92 125 23 63 33 81 52 86 39 11 59 10 59 -4z m680 -70 c0 -1 34 -96 75 -211 41 -115 75 -211 75 -213 0 -2 -21 -3 -47 -1 l-46 3 -52 155 -51 154 -31 -84 c-17 -47 -41 -118 -54 -157 l-23 -73 -48 0 c-26 0 -48 1 -48 3 0 1 34 96 75 211 41 115 75 210 75 212 0 2 23 4 50 4 28 0 50 -1 50 -3z m270 -192 l0 -195 -40 0 -40 0 0 195 0 195 40 0 40 0 0 -195z"/>
 <path d="M757 1055 c-9 -22 3 -46 22 -43 10 2 16 13 16 28 0 28 -29 40 -38 15z"/>
 <path d="M1000 995 c0 -23 4 -26 28 -23 19 2 27 9 27 23 0 14 -8 21 -27 23 -24 3 -28 0 -28 -23z"/>
 <path d="M1120 1061 c0 -5 9 -11 20 -14 13 -3 20 0 20 9 0 8 -9 14 -20 14 -11 0 -20 -4 -20 -9z"/>
 <path d="M1610 1020 c0 -39 4 -50 16 -50 31 0 54 20 54 48 0 34 -16 52 -47 52 -21 0 -23 -4 -23 -50z"/>
 <path d="M1940 1060 c0 -5 12 -10 26 -10 14 0 23 4 19 10 -3 6 -15 10 -26 10 -10 0 -19 -4 -19 -10z"/>
 <path d="M2147 1064 c-12 -12 -8 -41 7 -53 17 -14 39 9 34 36 -3 18 -29 29 -41 17z"/>
 <path d="M2257 523 c-4 -3 -7 -28 -7 -54 l0 -48 104 -3 103 -3 -4 45 c-7 72 -4 70 -101 70 -49 0 -92 -3 -95 -7z"/>
 <path d="M615 590 c-36 -38 -47 -128 -21 -178 33 -64 118 -78 165 -28 49 52 45 176 -6 216 -40 32 -102 27 -138 -10z"/>
 <path d="M1030 463 c-30 -8 -56 -16 -57 -17 -1 -1 4 -22 11 -46 15 -51 22 -52 106 -21 36 13 46 22 48 43 2 18 -4 31 -20 42 -12 9 -25 16 -28 15 -3 0 -30 -8 -60 -16z"/>
 </g>
<g id="layer115" fill="#a8d7f5" stroke="none">
 <path d="M0 680 l0 -680 1605 0 1605 0 0 680 0 680 -1605 0 -1605 0 0 -680z m867 438 c5 -7 19 -39 31 -70 16 -44 18 -58 8 -58 -7 0 -18 15 -23 33 l-10 32 -13 -32 c-6 -18 -16 -33 -21 -33 -13 0 -11 14 8 61 15 39 15 43 0 54 -9 7 -14 15 -10 18 10 10 20 8 30 -5z m1413 -38 c28 -71 32 -90 22 -90 -6 0 -15 15 -22 33 l-11 32 -14 -32 c-8 -18 -19 -33 -25 -33 -7 0 -9 6 -6 13 23 55 29 88 18 99 -17 17 -15 30 4 26 9 -2 24 -23 34 -48z m-1473 -2 c16 -13 17 -60 1 -76 -7 -7 -20 -12 -29 -12 -9 0 -19 -9 -22 -21 -11 -41 -27 -7 -27 55 l0 63 32 1 c18 0 38 -4 45 -10z m193 -13 c0 -19 7 -26 28 -31 50 -11 53 -13 50 -41 -3 -26 -7 -28 -50 -31 l-48 -3 0 65 c0 37 4 66 10 66 6 0 10 -11 10 -25z m180 -22 c-5 -47 -6 -48 -39 -48 -19 0 -36 6 -38 12 -3 9 4 11 26 7 20 -4 31 -2 31 5 0 6 -8 11 -18 11 -29 0 -54 23 -46 43 4 12 18 17 48 17 l42 0 -6 -47z m53 -5 c0 -29 -2 -59 -2 -65 -1 -18 -21 -16 -21 2 0 8 -5 15 -12 15 -9 0 -9 3 0 12 7 7 12 29 12 50 0 24 5 38 13 38 8 0 12 -16 10 -52z m39 15 c2 -27 8 -39 21 -41 14 -3 17 4 17 37 0 30 4 41 15 41 11 0 15 -12 15 -50 l0 -50 -45 0 -45 0 0 50 c0 58 17 68 22 13z m156 25 c9 -9 12 -9 12 0 0 23 30 12 31 -10 l0 -23 16 23 c8 12 22 22 30 22 11 0 9 -7 -7 -31 -21 -29 -21 -31 -5 -50 16 -17 16 -19 2 -19 -9 0 -19 6 -24 13 -5 8 -9 2 -13 -18 -7 -38 -23 -38 -30 1 -4 19 -8 25 -13 17 -10 -16 -49 -17 -65 -1 -7 7 -12 24 -12 38 0 31 17 50 45 50 12 0 26 -5 33 -12z m250 -4 c16 -11 22 -25 22 -53 0 -48 -14 -61 -67 -61 l-43 0 0 65 0 65 33 0 c18 0 43 -7 55 -16z m72 6 c0 -5 -7 -10 -15 -10 -8 0 -15 5 -15 10 0 6 7 10 15 10 8 0 15 -4 15 -10z m160 0 c0 -5 -13 -10 -30 -10 -28 0 -29 -1 -32 -55 -4 -79 -22 -73 -26 8 l-3 67 46 0 c25 0 45 -4 45 -10z m100 -26 c0 -18 -3 -39 -6 -48 -8 -20 -57 -21 -74 -1 -10 12 -10 15 3 15 9 0 19 -5 22 -10 4 -6 11 -8 16 -5 17 11 9 23 -21 29 -20 4 -30 11 -30 24 0 27 8 32 52 30 36 -1 38 -3 38 -34z m40 -5 c0 -33 3 -40 18 -37 12 2 18 14 20 41 5 55 24 45 20 -10 -3 -48 -3 -48 -40 -51 l-38 -3 0 50 c0 28 5 51 10 51 6 0 10 -18 10 -41z m160 -24 c0 -37 -4 -65 -10 -65 -5 0 -10 7 -10 15 0 9 -9 15 -23 15 -30 0 -47 18 -47 50 0 35 17 50 57 50 l33 0 0 -65z m-876 -66 c-3 -5 -10 -7 -15 -3 -5 3 -7 10 -3 15 3 5 10 7 15 3 5 -3 7 -10 3 -15z m1516 -369 l110 -164 -37 -15 c-33 -13 -38 -13 -47 3 -6 9 -39 61 -74 114 l-63 97 5 -65 c4 -36 9 -97 13 -135 l6 -71 -43 -17 c-24 -9 -44 -16 -45 -14 -1 1 -36 51 -78 111 -44 62 -77 101 -77 90 0 -10 7 -64 15 -119 20 -135 20 -132 -15 -140 -44 -10 -45 -9 -50 40 -3 25 -8 45 -12 45 -5 0 -53 0 -108 0 l-100 0 0 -40 0 -39 108 -3 107 -3 3 -32 3 -33 -150 0 -151 0 0 195 0 194 132 3 132 3 1 29 c0 24 6 31 37 42 43 15 31 27 148 -141 l62 -90 -6 85 c-4 47 -9 115 -13 151 l-6 65 34 11 c19 6 37 10 42 9 4 0 56 -75 117 -166z m-1680 127 c0 -22 -39 -129 -56 -155 -19 -28 -19 -28 29 -35 l37 -6 0 65 0 64 35 0 35 0 0 -125 c0 -69 4 -125 9 -125 5 0 18 39 30 88 44 177 37 162 80 162 l39 0 33 -132 34 -133 3 133 3 132 39 0 40 0 0 -195 0 -195 -59 0 c-68 0 -61 -10 -101 150 -32 128 -27 132 -80 -67 l-22 -83 -59 0 -59 0 0 40 c0 36 -2 40 -17 31 -17 -8 -207 -61 -222 -61 -4 0 -17 43 -30 95 -22 87 -41 115 -41 61 0 -29 -36 -82 -73 -110 -40 -30 -178 -30 -222 -1 -32 22 -185 58 -198 46 -4 -4 -8 -25 -10 -46 l-2 -39 65 -13 c106 -21 110 -23 110 -41 -1 -44 -11 -46 -133 -22 -63 12 -120 26 -127 30 -10 6 -4 48 26 195 l38 187 34 -6 c19 -3 37 -7 39 -10 3 -2 -2 -39 -11 -81 -9 -43 -16 -78 -16 -80 0 -1 17 -5 38 -9 20 -3 46 -8 57 -12 19 -5 20 -1 17 51 -5 81 5 120 41 162 39 44 82 63 144 63 49 0 124 -28 138 -50 5 -9 9 -9 14 -1 9 14 69 32 75 23 2 -4 12 -40 22 -79 10 -41 24 -73 31 -73 29 0 65 49 92 125 23 63 33 81 52 86 39 11 59 10 59 -4z m680 -70 c0 -1 34 -96 75 -211 41 -115 75 -211 75 -213 0 -2 -21 -3 -47 -1 l-46 3 -52 155 -51 154 -31 -84 c-17 -47 -41 -118 -54 -157 l-23 -73 -48 0 c-26 0 -48 1 -48 3 0 1 34 96 75 211 41 115 75 210 75 212 0 2 23 4 50 4 28 0 50 -1 50 -3z m270 -192 l0 -195 -40 0 -40 0 0 195 0 195 40 0 40 0 0 -195z"/>
 <path d="M757 1055 c-9 -22 3 -46 22 -43 10 2 16 13 16 28 0 28 -29 40 -38 15z"/>
 <path d="M1000 995 c0 -23 4 -26 28 -23 19 2 27 9 27 23 0 14 -8 21 -27 23 -24 3 -28 0 -28 -23z"/>
 <path d="M1120 1062 c0 -5 9 -12 21 -15 13 -3 19 -1 16 6 -5 15 -37 22 -37 9z"/>
 <path d="M1381 1067 c-29 -29 -3 -71 35 -53 30 14 30 26 0 48 -17 13 -26 14 -35 5z"/>
 <path d="M1610 1020 c0 -43 3 -50 19 -50 41 0 68 59 39 88 -7 7 -22 12 -35 12 -21 0 -23 -4 -23 -50z"/>
 <path d="M1940 1060 c0 -5 9 -10 20 -10 11 0 20 5 20 10 0 6 -9 10 -20 10 -11 0 -20 -4 -20 -10z"/>
 <path d="M2147 1064 c-12 -12 -8 -41 7 -53 17 -14 39 9 34 36 -3 18 -29 29 -41 17z"/>
 <path d="M2257 523 c-4 -3 -7 -28 -7 -54 l0 -48 104 -3 103 -3 -4 45 c-7 72 -4 70 -101 70 -49 0 -92 -3 -95 -7z"/>
 <path d="M615 590 c-36 -38 -47 -128 -21 -178 33 -64 118 -78 165 -28 49 52 45 176 -6 216 -40 32 -102 27 -138 -10z"/>
 <path d="M1030 463 c-30 -8 -56 -16 -57 -17 -1 -1 4 -22 11 -46 15 -51 22 -52 106 -21 36 13 46 22 48 43 2 18 -4 31 -20 42 -12 9 -25 16 -28 15 -3 0 -30 -8 -60 -16z"/>
 </g>
<g id="layer116" fill="#f6dbad" stroke="none">
 <path d="M0 680 l0 -680 1605 0 1605 0 0 680 0 680 -1605 0 -1605 0 0 -680z m868 438 c8 -10 52 -116 52 -125 0 -2 -6 -3 -14 -3 -8 0 -18 15 -22 33 l-7 32 -14 -32 c-7 -18 -18 -33 -23 -33 -14 0 -13 13 7 61 15 39 15 43 0 54 -9 7 -14 15 -10 18 10 10 19 8 31 -5z m1412 -34 c27 -62 34 -94 22 -94 -5 0 -16 15 -22 33 l-13 32 -10 -32 c-5 -18 -16 -33 -24 -33 -8 0 -12 6 -9 13 23 55 29 88 18 99 -16 16 -15 28 3 28 9 0 24 -20 35 -46z m-1470 -9 c6 -7 10 -29 8 -47 -2 -28 -7 -34 -30 -36 -20 -2 -28 -9 -28 -23 0 -12 -5 -19 -12 -17 -8 3 -14 29 -16 70 l-3 65 35 1 c19 1 39 -5 46 -13z m190 -9 c0 -25 16 -36 55 -36 25 0 39 -23 30 -51 -5 -15 -16 -19 -56 -19 l-49 0 0 65 c0 37 4 65 10 65 6 0 10 -11 10 -24z m184 -13 c-3 -21 -8 -44 -10 -51 -5 -17 -66 -12 -72 5 -2 9 5 11 27 7 20 -4 31 -2 31 5 0 6 -8 11 -18 11 -29 0 -54 23 -46 43 4 12 18 17 49 17 l44 0 -5 -37z m96 -3 c0 -29 4 -40 15 -40 11 0 15 11 15 40 0 29 4 40 15 40 11 0 15 -12 15 -50 l0 -50 -45 0 -45 0 0 46 c0 30 -4 43 -11 39 -6 -4 -10 -24 -8 -44 1 -20 1 -44 0 -53 -1 -22 -21 -24 -21 -3 0 8 -5 15 -12 15 -9 0 -9 3 0 12 7 7 12 29 12 50 0 37 1 38 35 38 34 0 35 -1 35 -40z m148 28 c9 -9 12 -9 12 0 0 23 30 12 31 -10 l0 -23 16 23 c8 12 22 22 30 22 12 0 11 -5 -3 -30 -17 -28 -17 -30 1 -50 18 -19 18 -20 -1 -20 -11 0 -25 5 -32 12 -9 9 -12 5 -12 -21 0 -41 -22 -37 -31 5 -4 16 -7 23 -8 17 -1 -16 -53 -17 -69 -1 -7 7 -12 24 -12 38 0 31 17 50 45 50 12 0 26 -5 33 -12z m263 -9 c13 -21 11 -83 -3 -97 -7 -7 -31 -12 -55 -12 l-43 0 0 66 0 67 46 -6 c26 -2 50 -11 55 -18z m59 11 c0 -5 -7 -10 -15 -10 -8 0 -15 5 -15 10 0 6 7 10 15 10 8 0 15 -4 15 -10z m160 0 c0 -5 -13 -10 -30 -10 l-30 0 0 -61 c0 -44 -3 -60 -12 -57 -8 3 -14 29 -16 71 l-3 67 46 0 c25 0 45 -4 45 -10z m98 -39 c-3 -43 -5 -46 -34 -49 -19 -2 -36 3 -44 12 -10 13 -10 16 3 16 9 0 19 -5 22 -10 4 -6 11 -8 16 -5 17 11 9 23 -21 29 -20 4 -30 11 -30 24 0 27 8 32 52 30 l39 -1 -3 -46z m44 12 c2 -26 8 -38 18 -38 10 0 16 12 18 38 5 55 24 45 20 -10 -3 -48 -3 -48 -40 -51 l-38 -3 0 50 c0 59 17 69 22 14z m158 -28 c0 -37 -4 -65 -10 -65 -5 0 -10 7 -10 15 0 9 -9 15 -23 15 -30 0 -47 18 -47 50 0 35 17 50 57 50 l33 0 0 -65z m-870 -60 c0 -8 -4 -15 -9 -15 -13 0 -22 16 -14 24 11 11 23 6 23 -9z m1510 -375 l110 -164 -37 -15 c-33 -13 -38 -13 -47 3 -6 9 -39 61 -74 114 l-63 97 5 -65 c4 -36 9 -97 13 -135 l6 -71 -43 -17 c-24 -9 -44 -16 -45 -14 -1 1 -36 51 -78 111 -44 62 -77 101 -77 90 0 -10 7 -64 15 -119 20 -135 20 -132 -15 -140 -44 -10 -45 -9 -50 40 -3 25 -8 45 -12 45 -5 0 -53 0 -108 0 l-100 0 0 -40 0 -39 108 -3 107 -3 3 -32 3 -33 -150 0 -151 0 0 195 0 194 132 3 132 3 1 29 c0 24 6 31 37 42 43 15 31 27 148 -141 l62 -90 -6 85 c-4 47 -9 115 -13 151 l-6 65 34 11 c19 6 37 10 42 9 4 0 56 -75 117 -166z m-1680 127 c0 -22 -39 -129 -56 -155 -19 -28 -19 -28 29 -35 l37 -6 0 65 0 64 35 0 35 0 0 -125 c0 -69 4 -125 9 -125 5 0 18 39 30 88 44 177 37 162 80 162 l39 0 33 -132 34 -133 3 133 3 132 39 0 40 0 0 -195 0 -195 -59 0 c-68 0 -61 -10 -101 150 -32 128 -27 132 -80 -67 l-22 -83 -59 0 -59 0 0 40 c0 36 -2 40 -17 31 -17 -8 -207 -61 -222 -61 -4 0 -17 43 -30 95 -22 87 -41 115 -41 61 0 -29 -36 -82 -73 -110 -40 -30 -178 -30 -222 -1 -32 22 -185 58 -198 46 -4 -4 -8 -25 -10 -46 l-2 -39 65 -13 c106 -21 110 -23 110 -41 -1 -44 -11 -46 -133 -22 -63 12 -120 26 -127 30 -10 6 -4 48 26 195 l38 187 34 -6 c19 -3 37 -7 39 -10 3 -2 -2 -39 -11 -81 -9 -43 -16 -78 -16 -80 0 -1 17 -5 38 -9 20 -3 46 -8 57 -12 19 -5 20 -1 17 51 -5 81 5 120 41 162 39 44 82 63 144 63 49 0 124 -28 138 -50 5 -9 9 -9 14 -1 9 14 69 32 75 23 2 -4 12 -40 22 -79 10 -41 24 -73 31 -73 29 0 65 49 92 125 23 63 33 81 52 86 39 11 59 10 59 -4z m680 -70 c0 -1 34 -96 75 -211 41 -115 75 -211 75 -213 0 -2 -21 -3 -47 -1 l-46 3 -52 155 -51 154 -31 -84 c-17 -47 -41 -118 -54 -157 l-23 -73 -48 0 c-26 0 -48 1 -48 3 0 1 34 96 75 211 41 115 75 210 75 212 0 2 23 4 50 4 28 0 50 -1 50 -3z m270 -192 l0 -195 -40 0 -40 0 0 195 0 195 40 0 40 0 0 -195z"/>
 <path d="M760 1040 c0 -25 4 -31 18 -28 11 2 17 12 17 28 0 16 -6 26 -17 28 -14 3 -18 -3 -18 -28z"/>
 <path d="M1000 995 c0 -23 4 -26 28 -23 19 2 27 9 27 23 0 14 -8 21 -27 23 -24 3 -28 0 -28 -23z"/>
 <path d="M1120 1062 c0 -5 9 -12 21 -15 13 -3 19 -1 16 6 -5 15 -37 22 -37 9z"/>
 <path d="M1380 1060 c-7 -14 -8 -26 0 -39 8 -16 13 -18 35 -8 31 15 31 27 0 50 -23 17 -25 17 -35 -3z"/>
 <path d="M1610 1020 c0 -43 3 -50 19 -50 41 0 68 59 39 88 -7 7 -22 12 -35 12 -21 0 -23 -4 -23 -50z"/>
 <path d="M1940 1060 c0 -5 9 -10 20 -10 11 0 20 5 20 10 0 6 -9 10 -20 10 -11 0 -20 -4 -20 -10z"/>
 <path d="M2150 1041 c0 -35 13 -47 30 -26 16 19 9 49 -13 53 -13 3 -17 -3 -17 -27z"/>
 <path d="M2257 523 c-4 -3 -7 -28 -7 -54 l0 -48 104 -3 103 -3 -4 45 c-7 72 -4 70 -101 70 -49 0 -92 -3 -95 -7z"/>
 <path d="M615 590 c-36 -38 -47 -128 -21 -178 33 -64 118 -78 165 -28 49 52 45 176 -6 216 -40 32 -102 27 -138 -10z"/>
 <path d="M1030 463 c-30 -8 -56 -16 -57 -17 -1 -1 4 -22 11 -46 15 -51 22 -52 106 -21 36 13 46 22 48 43 2 18 -4 31 -20 42 -12 9 -25 16 -28 15 -3 0 -30 -8 -60 -16z"/>
 </g>
<g id="layer117" fill="#d5f8fe" stroke="none">
 <path d="M0 680 l0 -680 1605 0 1605 0 0 680 0 680 -1605 0 -1605 0 0 -680z m868 438 c8 -10 52 -116 52 -125 0 -2 -6 -3 -14 -3 -8 0 -19 12 -24 28 l-10 27 -11 -27 c-6 -16 -17 -28 -26 -28 -12 0 -12 8 6 52 18 47 19 53 5 64 -9 6 -16 14 -16 18 0 11 27 6 38 -6z m1412 -34 c11 -25 23 -57 26 -70 9 -36 -14 -30 -29 9 l-14 32 -7 -32 c-4 -18 -14 -33 -22 -33 -17 0 -17 -3 2 54 12 35 13 51 5 59 -15 15 -14 27 4 27 9 0 24 -20 35 -46z m-1470 -9 c6 -7 10 -29 8 -47 -2 -28 -7 -34 -30 -36 -20 -2 -28 -9 -28 -23 0 -10 -7 -19 -15 -19 -12 0 -15 14 -15 68 l0 69 34 1 c19 1 39 -5 46 -13z m190 -9 c0 -25 16 -36 55 -36 25 0 39 -23 30 -51 -5 -15 -16 -19 -56 -19 l-49 0 0 65 c0 37 4 65 10 65 6 0 10 -11 10 -24z m184 -13 c-9 -59 -11 -63 -42 -63 -31 0 -60 24 -43 34 5 4 12 2 16 -4 8 -13 35 -13 35 0 0 6 -6 10 -13 10 -24 0 -51 26 -44 44 5 11 19 16 51 16 l45 0 -5 -37z m96 -3 c0 -29 4 -40 15 -40 11 0 15 11 15 40 0 29 4 40 15 40 11 0 15 -12 15 -50 l0 -50 -45 0 -45 0 0 46 c0 30 -4 43 -11 39 -6 -4 -10 -24 -8 -44 3 -57 0 -71 -16 -71 -16 0 -19 14 -15 75 3 52 5 55 46 55 33 0 34 -1 34 -40z m148 28 c9 -9 12 -9 12 0 0 23 30 12 31 -10 l0 -23 16 23 c8 12 22 22 30 22 12 0 11 -5 -3 -30 -17 -28 -17 -30 1 -50 18 -19 18 -20 -1 -20 -11 0 -25 5 -32 12 -9 9 -12 5 -12 -20 0 -22 -5 -32 -15 -32 -10 0 -15 10 -15 33 0 21 -3 27 -9 19 -5 -8 -22 -12 -42 -10 -30 3 -34 7 -37 36 -2 18 2 40 9 48 14 17 51 18 67 2z m263 -9 c13 -21 11 -83 -3 -97 -7 -7 -31 -12 -55 -12 l-43 0 0 66 0 67 46 -6 c26 -2 50 -11 55 -18z m59 11 c0 -5 -7 -10 -15 -10 -8 0 -15 5 -15 10 0 6 7 10 15 10 8 0 15 -4 15 -10z m160 0 c0 -5 -13 -10 -30 -10 l-30 0 0 -60 c0 -47 -3 -60 -15 -60 -12 0 -15 14 -15 70 l0 70 45 0 c25 0 45 -4 45 -10z m98 -39 l-3 -46 -40 0 c-38 0 -39 1 -42 35 -3 54 2 60 47 58 l41 -1 -3 -46z m44 12 c2 -26 8 -38 18 -38 10 0 16 12 18 38 5 55 24 45 20 -10 l-3 -48 -42 -3 -43 -3 0 50 c0 38 4 51 14 51 10 0 16 -13 18 -37z m158 -28 c0 -37 -4 -65 -10 -65 -5 0 -10 7 -10 15 0 9 -9 15 -23 15 -30 0 -47 18 -47 50 0 35 17 50 57 50 l33 0 0 -65z m-870 -60 c0 -8 -7 -15 -15 -15 -8 0 -15 7 -15 15 0 8 7 15 15 15 8 0 15 -7 15 -15z m1510 -375 l110 -164 -37 -15 c-33 -13 -38 -13 -47 3 -6 9 -39 61 -74 114 l-63 97 5 -65 c4 -36 9 -97 13 -135 l6 -71 -43 -17 c-24 -9 -44 -16 -45 -14 -1 1 -36 51 -78 111 -44 62 -77 101 -77 90 0 -10 7 -64 15 -119 20 -135 20 -132 -15 -140 -44 -10 -45 -9 -50 40 -3 25 -8 45 -12 45 -5 0 -53 0 -108 0 l-100 0 0 -40 0 -39 108 -3 107 -3 3 -32 3 -33 -150 0 -151 0 0 195 0 194 132 3 132 3 1 29 c0 24 6 31 37 42 43 15 31 27 148 -141 l62 -90 -6 85 c-4 47 -9 115 -13 151 l-6 65 34 11 c19 6 37 10 42 9 4 0 56 -75 117 -166z m-1680 127 c0 -22 -39 -129 -56 -155 -19 -28 -19 -28 29 -35 l37 -6 0 65 0 64 35 0 35 0 0 -125 c0 -69 4 -125 9 -125 5 0 18 39 30 88 44 177 37 162 80 162 l39 0 33 -132 34 -133 3 133 3 132 39 0 40 0 0 -195 0 -195 -59 0 c-68 0 -61 -10 -101 150 -32 128 -27 132 -80 -67 l-22 -83 -59 0 -59 0 0 40 c0 36 -2 40 -17 31 -17 -8 -207 -61 -222 -61 -4 0 -17 43 -30 95 -22 87 -41 115 -41 61 0 -29 -36 -82 -73 -110 -40 -30 -178 -30 -222 -1 -32 22 -185 58 -198 46 -4 -4 -8 -25 -10 -46 l-2 -39 65 -13 c106 -21 110 -23 110 -41 -1 -44 -11 -46 -133 -22 -63 12 -120 26 -127 30 -10 6 -4 48 26 195 l38 187 34 -6 c19 -3 37 -7 39 -10 3 -2 -2 -39 -11 -81 -9 -43 -16 -78 -16 -80 0 -1 17 -5 38 -9 20 -3 46 -8 57 -12 19 -5 20 -1 17 51 -5 81 5 120 41 162 39 44 82 63 144 63 49 0 124 -28 138 -50 5 -9 9 -9 14 -1 9 14 69 32 75 23 2 -4 12 -40 22 -79 10 -41 24 -73 31 -73 29 0 65 49 92 125 23 63 33 81 52 86 39 11 59 10 59 -4z m680 -70 c0 -1 34 -96 75 -211 41 -115 75 -211 75 -213 0 -2 -21 -3 -47 -1 l-46 3 -52 155 -51 154 -31 -84 c-17 -47 -41 -118 -54 -157 l-23 -73 -48 0 c-26 0 -48 1 -48 3 0 1 34 96 75 211 41 115 75 210 75 212 0 2 23 4 50 4 28 0 50 -1 50 -3z m270 -192 l0 -195 -40 0 -40 0 0 195 0 195 40 0 40 0 0 -195z"/>
 <path d="M760 1040 c0 -25 4 -31 18 -28 11 2 17 12 17 28 0 16 -6 26 -17 28 -14 3 -18 -3 -18 -28z"/>
 <path d="M1000 995 c0 -23 4 -26 28 -23 19 2 27 9 27 23 0 14 -8 21 -27 23 -24 3 -28 0 -28 -23z"/>
 <path d="M1120 1062 c0 -5 9 -12 21 -15 13 -3 19 -1 16 6 -5 15 -37 22 -37 9z"/>
 <path d="M1381 1062 c-8 -15 -9 -28 -1 -41 8 -16 13 -18 35 -8 25 12 35 37 14 37 -7 0 -17 8 -24 17 -11 15 -13 15 -24 -5z"/>
 <path d="M1610 1021 c0 -43 3 -51 18 -51 11 0 27 9 37 20 26 29 10 74 -28 78 -26 3 -27 2 -27 -47z"/>
 <path d="M1940 1060 c0 -5 9 -10 20 -10 11 0 20 5 20 10 0 6 -9 10 -20 10 -11 0 -20 -4 -20 -10z"/>
 <path d="M1950 1015 c12 -15 30 -12 30 6 0 5 -10 9 -21 9 -18 0 -19 -2 -9 -15z"/>
 <path d="M2150 1041 c0 -37 15 -48 29 -22 13 23 4 51 -15 51 -9 0 -14 -11 -14 -29z"/>
 <path d="M2257 523 c-4 -3 -7 -28 -7 -54 l0 -48 104 -3 103 -3 -4 45 c-7 72 -4 70 -101 70 -49 0 -92 -3 -95 -7z"/>
 <path d="M615 590 c-36 -38 -47 -128 -21 -178 33 -64 118 -78 165 -28 49 52 45 176 -6 216 -40 32 -102 27 -138 -10z"/>
 <path d="M1030 463 c-30 -8 -56 -16 -57 -17 -1 -1 4 -22 11 -46 15 -51 22 -52 106 -21 36 13 46 22 48 43 2 18 -4 31 -20 42 -12 9 -25 16 -28 15 -3 0 -30 -8 -60 -16z"/>
 </g>
<g id="layer118" fill="#ffffff" stroke="none">
 <path d="M0 680 l0 -680 1605 0 1605 0 0 680 0 680 -1605 0 -1605 0 0 -680z m897 385 c27 -73 27 -75 8 -75 -8 0 -18 12 -21 26 l-7 27 -14 -27 c-15 -29 -46 -37 -37 -8 5 16 5 16 -6 0 -6 -10 -22 -18 -35 -18 -18 0 -25 -5 -25 -20 0 -11 -7 -20 -15 -20 -12 0 -15 14 -15 68 l0 69 41 1 c36 2 41 -1 53 -29 l13 -31 12 33 c10 28 9 36 -4 45 -22 16 -19 26 7 22 18 -2 28 -17 45 -63z m1370 53 c5 -7 19 -39 31 -70 18 -49 19 -58 6 -58 -8 0 -19 12 -25 28 l-11 27 -10 -27 c-5 -16 -16 -28 -24 -28 -17 0 -17 -3 2 54 12 35 13 51 5 59 -6 6 -11 15 -11 19 0 13 27 9 37 -4z m-1257 -53 c0 -29 9 -34 67 -38 23 -1 45 -6 49 -10 10 -9 24 -9 24 1 0 4 -14 13 -31 19 -21 8 -30 17 -27 30 2 14 14 19 51 21 l47 3 0 -35 c0 -19 -3 -41 -6 -50 -7 -19 -64 -22 -82 -4 -9 9 -12 7 -12 -9 0 -30 -20 -40 -67 -35 l-43 4 0 64 c0 50 3 64 15 64 9 0 15 -9 15 -25z m272 -12 c4 -52 28 -56 28 -4 0 30 4 41 15 41 11 0 15 -12 15 -50 l0 -50 -55 0 c-42 0 -55 -3 -55 -15 0 -21 -30 -19 -31 3 -3 27 3 96 8 105 2 4 19 7 38 7 32 0 34 -2 37 -37z m189 13 c0 -21 0 -21 16 2 8 12 22 22 29 22 18 0 18 -5 -2 -36 -16 -23 -15 -26 1 -44 17 -19 17 -20 -1 -20 -11 0 -25 5 -32 12 -9 9 -12 5 -12 -20 0 -22 -5 -32 -15 -32 -9 0 -15 9 -15 23 0 19 -5 22 -42 22 -41 0 -43 1 -46 33 -5 48 11 62 69 60 43 0 49 -3 50 -22z m223 2 c18 -26 20 -61 6 -89 -8 -15 -22 -19 -60 -19 l-50 0 0 65 0 65 44 0 c35 0 48 -5 60 -22z m56 6 c0 -9 -5 -14 -12 -12 -18 6 -21 28 -4 28 9 0 16 -7 16 -16z m302 -23 c4 -50 32 -50 36 2 5 55 22 45 22 -13 l0 -50 -45 0 -45 0 -2 48 -1 47 -6 -45 c-6 -45 -6 -45 -46 -45 -33 0 -40 4 -41 20 -3 54 -3 55 -39 55 l-35 0 0 -60 c0 -47 -3 -60 -15 -60 -12 0 -15 14 -15 70 l0 69 114 0 115 -1 3 -37z m158 -26 c0 -37 -4 -65 -10 -65 -5 0 -10 7 -10 15 0 9 -9 15 -23 15 -30 0 -47 18 -47 50 0 35 17 50 57 50 l33 0 0 -65z m-870 -60 c0 -8 -7 -15 -15 -15 -8 0 -15 7 -15 15 0 8 7 15 15 15 8 0 15 -7 15 -15z m1510 -375 l110 -164 -37 -15 c-33 -13 -38 -13 -47 3 -6 9 -39 61 -74 114 l-63 97 5 -65 c4 -36 9 -97 13 -135 l6 -71 -43 -17 c-24 -9 -44 -16 -45 -14 -1 1 -36 51 -78 111 -44 62 -77 101 -77 90 0 -10 7 -64 15 -119 20 -135 20 -132 -15 -140 -44 -10 -45 -9 -50 40 -3 25 -8 45 -12 45 -5 0 -53 0 -108 0 l-100 0 0 -40 0 -39 108 -3 107 -3 3 -32 3 -33 -150 0 -151 0 0 195 0 194 132 3 132 3 1 29 c0 24 6 31 37 42 43 15 31 27 148 -141 l62 -90 -6 85 c-4 47 -9 115 -13 151 l-6 65 34 11 c19 6 37 10 42 9 4 0 56 -75 117 -166z m-1680 127 c0 -22 -39 -129 -56 -155 -19 -28 -19 -28 29 -35 l37 -6 0 65 0 64 35 0 35 0 0 -125 c0 -69 4 -125 9 -125 5 0 18 39 30 88 44 177 37 162 80 162 l39 0 33 -132 34 -133 3 133 3 132 39 0 40 0 0 -195 0 -195 -59 0 c-68 0 -61 -10 -101 150 -32 128 -27 132 -80 -67 l-22 -83 -59 0 -59 0 0 40 c0 36 -2 40 -17 31 -17 -8 -207 -61 -222 -61 -4 0 -17 43 -30 95 -22 87 -41 115 -41 61 0 -29 -36 -82 -73 -110 -40 -30 -178 -30 -222 -1 -32 22 -185 58 -198 46 -4 -4 -8 -25 -10 -46 l-2 -39 65 -13 c106 -21 110 -23 110 -41 -1 -44 -11 -46 -133 -22 -63 12 -120 26 -127 30 -10 6 -4 48 26 195 l38 187 34 -6 c19 -3 37 -7 39 -10 3 -2 -2 -39 -11 -81 -9 -43 -16 -78 -16 -80 0 -1 17 -5 38 -9 20 -3 46 -8 57 -12 19 -5 20 -1 17 51 -5 81 5 120 41 162 39 44 82 63 144 63 49 0 124 -28 138 -50 5 -9 9 -9 14 -1 9 14 69 32 75 23 2 -4 12 -40 22 -79 10 -41 24 -73 31 -73 29 0 65 49 92 125 23 63 33 81 52 86 39 11 59 10 59 -4z m680 -70 c0 -1 34 -96 75 -211 41 -115 75 -211 75 -213 0 -2 -21 -3 -47 -1 l-46 3 -52 155 -51 154 -31 -84 c-17 -47 -41 -118 -54 -157 l-23 -73 -48 0 c-26 0 -48 1 -48 3 0 1 34 96 75 211 41 115 75 210 75 212 0 2 23 4 50 4 28 0 50 -1 50 -3z m270 -192 l0 -195 -40 0 -40 0 0 195 0 195 40 0 40 0 0 -195z"/>
 <path d="M764 1056 c-8 -22 3 -49 19 -43 6 2 12 14 12 27 0 27 -22 39 -31 16z"/>
 <path d="M1134 1055 c21 -16 32 -13 21 4 -3 6 -14 11 -23 11 -15 -1 -15 -2 2 -15z"/>
 <path d="M1014 1005 c-4 -9 -2 -21 4 -27 15 -15 44 -1 40 19 -4 23 -36 29 -44 8z"/>
 <path d="M1230 1040 c0 -16 5 -30 10 -30 6 0 10 14 10 30 0 17 -4 30 -10 30 -5 0 -10 -13 -10 -30z"/>
 <path d="M1387 1074 c-9 -10 -9 -62 1 -67 7 -5 52 27 52 37 0 3 -5 6 -11 6 -7 0 -17 7 -23 16 -6 8 -15 12 -19 8z"/>
 <path d="M1620 1026 c0 -53 14 -66 43 -37 17 17 19 25 11 48 -6 17 -18 29 -32 31 -20 3 -22 -1 -22 -42z"/>
 <path d="M1950 1060 c0 -5 7 -10 15 -10 8 0 15 5 15 10 0 6 -7 10 -15 10 -8 0 -15 -4 -15 -10z"/>
 <path d="M1950 1015 c12 -15 30 -12 30 6 0 5 -10 9 -21 9 -18 0 -19 -2 -9 -15z"/>
 <path d="M2154 1055 c-7 -18 2 -45 15 -45 13 0 22 27 15 45 -4 8 -10 15 -15 15 -5 0 -12 -7 -15 -15z"/>
 <path d="M2257 523 c-4 -3 -7 -28 -7 -54 l0 -48 104 -3 103 -3 -4 45 c-7 72 -4 70 -101 70 -49 0 -92 -3 -95 -7z"/>
 <path d="M615 590 c-36 -38 -47 -128 -21 -178 33 -64 118 -78 165 -28 49 52 45 176 -6 216 -40 32 -102 27 -138 -10z"/>
 <path d="M1030 463 c-30 -8 -56 -16 -57 -17 -1 -1 4 -22 11 -46 15 -51 22 -52 106 -21 36 13 46 22 48 43 2 18 -4 31 -20 42 -12 9 -25 16 -28 15 -3 0 -30 -8 -60 -16z"/>
 </g>

</svg>