<svg id="icon-pages" viewBox="0 0 25.1 31.8">
      
      <desc>Two pages</desc>
        <path d="M5.7,24.4h8v1.4h-8V24.4z M14.9,23.2c-0.2-0.2-0.5-0.3-0.7-0.3h-9c-0.3,0-0.5,0.1-0.7,0.3
      c-0.2,0.2-0.3,0.5-0.3,0.7v2.4c0,0.6,0.5,1,1,1h9c0.6,0,1-0.5,1-1v-2.4C15.3,23.6,15.1,23.4,14.9,23.2"></path>
    <path d="M8.4,17.4h5.7c0.4,0,0.7-0.3,0.7-0.8s-0.3-0.7-0.8-0.7H8.3c-0.4,0-0.7,0.3-0.7,0.8S8,17.4,8.4,17.4"></path>
    <path d="M5,13.8L5,13.8h9.1c0.4,0,0.7-0.3,0.7-0.8s-0.3-0.7-0.8-0.7H4.9c-0.4,0-0.7,0.3-0.7,0.8S4.5,13.8,5,13.8"></path>
    <path d="M5.9,16.7 M5.3,17.6c0.2,0,0.5-0.1,0.6-0.3c0.2-0.2,0.3-0.4,0.3-0.6c0-0.5-0.4-0.9-0.9-0.9
      c-0.2,0-0.5,0.1-0.6,0.3c-0.2,0.2-0.3,0.4-0.3,0.6c0,0.2,0.1,0.4,0.3,0.6C4.9,17.5,5.1,17.6,5.3,17.6"></path>
    <path d="M8.4,20.4L8.4,20.4h5.7c0.4,0,0.7-0.3,0.7-0.8s-0.3-0.7-0.8-0.7H8.3c-0.4,0-0.7,0.3-0.7,0.8S8,20.4,8.4,20.4"></path>
    <path d="M5.3,20.6L5.3,20.6c0.2,0,0.5-0.1,0.6-0.3c0.2-0.2,0.3-0.4,0.3-0.6c0-0.5-0.4-0.9-0.9-0.9s-0.9,0.4-0.9,0.9
      S4.8,20.6,5.3,20.6"></path>
    <path d="M1.5,30.2V9.3h16.2v21L1.5,30.2L1.5,30.2z M17.8,7.8H1.6V5h16.2V7.8z M18.5,3.5H0.8C0.4,3.5,0,3.8,0,4.3V31
      c0,0.4,0.3,0.8,0.8,0.8h17.7c0.4,0,0.8-0.3,0.8-0.8V4.3C19.3,3.8,18.9,3.5,18.5,3.5"></path>
    <path d="M24.3,0H6.5C6.1,0,5.7,0.3,5.7,0.8v1.3c0,0.4,0.3,0.8,0.8,0.8s0.8-0.3,0.8-0.8V1.6h16.2v3h-2.7
      c-0.4,0-0.7,0.3-0.7,0.8c0,0.4,0.3,0.7,0.8,0.7h2.7v20.8h-2.7c-0.4,0-0.8,0.3-0.8,0.8s0.3,0.8,0.8,0.8h3.4c0.4,0,0.8-0.3,0.8-0.8V1
      C25,0.3,24.7,0,24.3,0"></path>
   </svg>